<mxfile host="app.diagrams.net" modified="2022-11-28T03:43:14.225Z" agent="5.0 (Windows NT 10.0; Win64; x64) AppleWebKit/537.36 (KHTML, like Gecko) Chrome/107.0.0.0 Safari/537.36" version="20.6.0" etag="7NCL6VbHjaAjI0xwntPs" type="github" pages="2">
  <diagram id="gh3JwrLqikJQ2UG7o7Ro" name="Now">
    <mxGraphModel dx="1102" dy="582" grid="1" gridSize="10" guides="1" tooltips="1" connect="1" arrows="1" fold="1" page="1" pageScale="1" pageWidth="1169" pageHeight="827" background="#F4F1DE" math="0" shadow="0">
      <root>
        <mxCell id="0" />
        <mxCell id="1" parent="0" />
        <mxCell id="JIfOrTNAelRgJO-WILz3-1" value="Driver" style="rounded=0;whiteSpace=wrap;html=1;fillColor=#F2CC8F;strokeColor=#E07A5F;fontColor=#393C56;" vertex="1" parent="1">
          <mxGeometry x="120" y="40" width="80" height="40" as="geometry" />
        </mxCell>
        <mxCell id="JIfOrTNAelRgJO-WILz3-3" value="Sales/CS" style="rounded=0;whiteSpace=wrap;html=1;fillColor=#F2CC8F;strokeColor=#E07A5F;fontColor=#393C56;" vertex="1" parent="1">
          <mxGeometry x="120" y="90" width="80" height="40" as="geometry" />
        </mxCell>
        <mxCell id="JIfOrTNAelRgJO-WILz3-4" value="Marketing" style="rounded=0;whiteSpace=wrap;html=1;fillColor=#F2CC8F;strokeColor=#E07A5F;fontColor=#393C56;" vertex="1" parent="1">
          <mxGeometry x="120" y="140" width="80" height="40" as="geometry" />
        </mxCell>
        <mxCell id="JIfOrTNAelRgJO-WILz3-5" value="Customer" style="rounded=0;whiteSpace=wrap;html=1;fillColor=#F2CC8F;strokeColor=#E07A5F;fontColor=#393C56;" vertex="1" parent="1">
          <mxGeometry x="120" y="190" width="80" height="40" as="geometry" />
        </mxCell>
        <mxCell id="JIfOrTNAelRgJO-WILz3-6" value="Marketing" style="rounded=0;whiteSpace=wrap;html=1;fillColor=#F2CC8F;strokeColor=#E07A5F;fontColor=#393C56;" vertex="1" parent="1">
          <mxGeometry x="260" y="40" width="80" height="40" as="geometry" />
        </mxCell>
        <mxCell id="JIfOrTNAelRgJO-WILz3-7" value="Sales/CS" style="rounded=0;whiteSpace=wrap;html=1;fillColor=#F2CC8F;strokeColor=#E07A5F;fontColor=#393C56;" vertex="1" parent="1">
          <mxGeometry x="450" y="40" width="80" height="40" as="geometry" />
        </mxCell>
        <mxCell id="JIfOrTNAelRgJO-WILz3-8" value="Sales Manager" style="rounded=0;whiteSpace=wrap;html=1;fillColor=#F2CC8F;strokeColor=#E07A5F;fontColor=#393C56;" vertex="1" parent="1">
          <mxGeometry x="560" y="40" width="80" height="40" as="geometry" />
        </mxCell>
        <mxCell id="JIfOrTNAelRgJO-WILz3-9" value="QMR" style="rounded=0;whiteSpace=wrap;html=1;fillColor=#F2CC8F;strokeColor=#E07A5F;fontColor=#393C56;" vertex="1" parent="1">
          <mxGeometry x="663.33" y="110" width="80" height="40" as="geometry" />
        </mxCell>
        <mxCell id="JIfOrTNAelRgJO-WILz3-12" value="" style="edgeStyle=elbowEdgeStyle;elbow=horizontal;endArrow=classic;html=1;rounded=0;exitX=1;exitY=0.5;exitDx=0;exitDy=0;entryX=0;entryY=0.5;entryDx=0;entryDy=0;labelBackgroundColor=#F4F1DE;strokeColor=#E07A5F;fontColor=#393C56;" edge="1" parent="1" source="JIfOrTNAelRgJO-WILz3-5" target="JIfOrTNAelRgJO-WILz3-6">
          <mxGeometry width="50" height="50" relative="1" as="geometry">
            <mxPoint x="600" y="330" as="sourcePoint" />
            <mxPoint x="650" y="280" as="targetPoint" />
          </mxGeometry>
        </mxCell>
        <mxCell id="JIfOrTNAelRgJO-WILz3-13" value="" style="edgeStyle=elbowEdgeStyle;elbow=horizontal;endArrow=classic;html=1;rounded=0;exitX=1;exitY=0.5;exitDx=0;exitDy=0;entryX=0;entryY=0.5;entryDx=0;entryDy=0;labelBackgroundColor=#F4F1DE;strokeColor=#E07A5F;fontColor=#393C56;" edge="1" parent="1" source="JIfOrTNAelRgJO-WILz3-4" target="JIfOrTNAelRgJO-WILz3-6">
          <mxGeometry width="50" height="50" relative="1" as="geometry">
            <mxPoint x="210" y="310" as="sourcePoint" />
            <mxPoint x="270" y="60" as="targetPoint" />
          </mxGeometry>
        </mxCell>
        <mxCell id="JIfOrTNAelRgJO-WILz3-14" value="" style="edgeStyle=elbowEdgeStyle;elbow=horizontal;endArrow=classic;html=1;rounded=0;exitX=1;exitY=0.5;exitDx=0;exitDy=0;entryX=0;entryY=0.5;entryDx=0;entryDy=0;labelBackgroundColor=#F4F1DE;strokeColor=#E07A5F;fontColor=#393C56;" edge="1" parent="1" source="JIfOrTNAelRgJO-WILz3-3" target="JIfOrTNAelRgJO-WILz3-6">
          <mxGeometry width="50" height="50" relative="1" as="geometry">
            <mxPoint x="220" y="320" as="sourcePoint" />
            <mxPoint x="300" y="80" as="targetPoint" />
          </mxGeometry>
        </mxCell>
        <mxCell id="JIfOrTNAelRgJO-WILz3-15" value="" style="edgeStyle=elbowEdgeStyle;elbow=horizontal;endArrow=classic;html=1;rounded=0;exitX=1;exitY=0.5;exitDx=0;exitDy=0;entryX=0;entryY=0.5;entryDx=0;entryDy=0;labelBackgroundColor=#F4F1DE;strokeColor=#E07A5F;fontColor=#393C56;" edge="1" parent="1" source="JIfOrTNAelRgJO-WILz3-1" target="JIfOrTNAelRgJO-WILz3-6">
          <mxGeometry width="50" height="50" relative="1" as="geometry">
            <mxPoint x="230" y="330" as="sourcePoint" />
            <mxPoint x="310" y="90" as="targetPoint" />
          </mxGeometry>
        </mxCell>
        <mxCell id="JIfOrTNAelRgJO-WILz3-16" value="Decision" style="html=1;whiteSpace=wrap;aspect=fixed;shape=isoRectangle;fillColor=#F2CC8F;strokeColor=#E07A5F;fontColor=#393C56;" vertex="1" parent="1">
          <mxGeometry x="670" y="40" width="66.67" height="40" as="geometry" />
        </mxCell>
        <mxCell id="JIfOrTNAelRgJO-WILz3-17" value="" style="endArrow=classic;html=1;rounded=0;exitX=1;exitY=0.5;exitDx=0;exitDy=0;entryX=0;entryY=0.525;entryDx=0;entryDy=0;labelBackgroundColor=#F4F1DE;strokeColor=#E07A5F;fontColor=#393C56;entryPerimeter=0;" edge="1" parent="1" source="JIfOrTNAelRgJO-WILz3-6" target="xjm1Cs8kN3EtSxawpRm1-1">
          <mxGeometry width="50" height="50" relative="1" as="geometry">
            <mxPoint x="600" y="290" as="sourcePoint" />
            <mxPoint x="650" y="240" as="targetPoint" />
          </mxGeometry>
        </mxCell>
        <mxCell id="JIfOrTNAelRgJO-WILz3-18" value="" style="endArrow=classic;html=1;rounded=0;exitX=1;exitY=0.5;exitDx=0;exitDy=0;entryX=0;entryY=0.5;entryDx=0;entryDy=0;labelBackgroundColor=#F4F1DE;strokeColor=#E07A5F;fontColor=#393C56;" edge="1" parent="1" source="JIfOrTNAelRgJO-WILz3-7" target="JIfOrTNAelRgJO-WILz3-8">
          <mxGeometry width="50" height="50" relative="1" as="geometry">
            <mxPoint x="570" y="120" as="sourcePoint" />
            <mxPoint x="610" y="120" as="targetPoint" />
          </mxGeometry>
        </mxCell>
        <mxCell id="JIfOrTNAelRgJO-WILz3-19" value="" style="endArrow=classic;html=1;rounded=0;exitX=1;exitY=0.5;exitDx=0;exitDy=0;entryX=0.06;entryY=0.5;entryDx=0;entryDy=0;entryPerimeter=0;labelBackgroundColor=#F4F1DE;strokeColor=#E07A5F;fontColor=#393C56;" edge="1" parent="1" source="JIfOrTNAelRgJO-WILz3-8" target="JIfOrTNAelRgJO-WILz3-16">
          <mxGeometry width="50" height="50" relative="1" as="geometry">
            <mxPoint x="460" y="80" as="sourcePoint" />
            <mxPoint x="500" y="80" as="targetPoint" />
          </mxGeometry>
        </mxCell>
        <mxCell id="JIfOrTNAelRgJO-WILz3-20" value="" style="endArrow=classic;html=1;rounded=0;exitX=0.5;exitY=1;exitDx=0;exitDy=0;entryX=0.651;entryY=0.002;entryDx=0;entryDy=0;labelBackgroundColor=#F4F1DE;strokeColor=#E07A5F;fontColor=#393C56;entryPerimeter=0;" edge="1" parent="1" source="JIfOrTNAelRgJO-WILz3-9" target="JIfOrTNAelRgJO-WILz3-103">
          <mxGeometry width="50" height="50" relative="1" as="geometry">
            <mxPoint x="420" y="240" as="sourcePoint" />
            <mxPoint x="622.9064220183486" y="167" as="targetPoint" />
          </mxGeometry>
        </mxCell>
        <mxCell id="JIfOrTNAelRgJO-WILz3-22" value="Start" style="ellipse;whiteSpace=wrap;html=1;aspect=fixed;fillColor=#F2CC8F;strokeColor=#E07A5F;fontColor=#393C56;" vertex="1" parent="1">
          <mxGeometry x="40" y="40" width="40" height="40" as="geometry" />
        </mxCell>
        <mxCell id="JIfOrTNAelRgJO-WILz3-23" value="End" style="ellipse;whiteSpace=wrap;html=1;aspect=fixed;fillColor=#F2CC8F;strokeColor=#E07A5F;fontColor=#393C56;" vertex="1" parent="1">
          <mxGeometry x="811.67" y="40" width="40" height="40" as="geometry" />
        </mxCell>
        <mxCell id="JIfOrTNAelRgJO-WILz3-24" value="RE" style="endArrow=classic;html=1;rounded=0;exitX=0.99;exitY=0.475;exitDx=0;exitDy=0;exitPerimeter=0;labelBackgroundColor=#F4F1DE;strokeColor=#E07A5F;fontColor=#393C56;" edge="1" parent="1" source="JIfOrTNAelRgJO-WILz3-16" target="JIfOrTNAelRgJO-WILz3-23">
          <mxGeometry relative="1" as="geometry">
            <mxPoint x="770" y="40" as="sourcePoint" />
            <mxPoint x="630" y="160" as="targetPoint" />
          </mxGeometry>
        </mxCell>
        <mxCell id="JIfOrTNAelRgJO-WILz3-25" value="Reject" style="edgeLabel;resizable=0;html=1;align=center;verticalAlign=middle;labelBackgroundColor=#F4F1DE;fontColor=#393C56;" connectable="0" vertex="1" parent="JIfOrTNAelRgJO-WILz3-24">
          <mxGeometry relative="1" as="geometry" />
        </mxCell>
        <mxCell id="JIfOrTNAelRgJO-WILz3-27" value="" style="endArrow=classic;html=1;rounded=0;exitX=0.48;exitY=1;exitDx=0;exitDy=0;exitPerimeter=0;labelBackgroundColor=#F4F1DE;strokeColor=#E07A5F;fontColor=#393C56;" edge="1" parent="1" source="JIfOrTNAelRgJO-WILz3-16" target="JIfOrTNAelRgJO-WILz3-9">
          <mxGeometry relative="1" as="geometry">
            <mxPoint x="380" y="160" as="sourcePoint" />
            <mxPoint x="480" y="160" as="targetPoint" />
          </mxGeometry>
        </mxCell>
        <mxCell id="JIfOrTNAelRgJO-WILz3-28" value="Approve" style="edgeLabel;resizable=0;html=1;align=center;verticalAlign=middle;labelBackgroundColor=#F4F1DE;fontColor=#393C56;" connectable="0" vertex="1" parent="JIfOrTNAelRgJO-WILz3-27">
          <mxGeometry relative="1" as="geometry">
            <mxPoint x="1" as="offset" />
          </mxGeometry>
        </mxCell>
        <mxCell id="5Fzmc9VXGLprYbqFvWe1-2" value="" style="edgeStyle=orthogonalEdgeStyle;rounded=0;orthogonalLoop=1;jettySize=auto;html=1;strokeColor=#E07A5F;fontColor=#393C56;fontSize=12;fillColor=#F2CC8F;fontStyle=1;startSize=23;" edge="1" parent="1" source="JIfOrTNAelRgJO-WILz3-103" target="5Fzmc9VXGLprYbqFvWe1-1">
          <mxGeometry relative="1" as="geometry" />
        </mxCell>
        <mxCell id="JIfOrTNAelRgJO-WILz3-103" value="Subflow" style="swimlane;whiteSpace=wrap;html=1;fillColor=#F2CC8F;strokeColor=#E07A5F;fontColor=#393C56;" vertex="1" parent="1">
          <mxGeometry x="353.34" y="180" width="540" height="620" as="geometry" />
        </mxCell>
        <mxCell id="JIfOrTNAelRgJO-WILz3-21" value="Has &lt;br&gt;return" style="html=1;whiteSpace=wrap;aspect=fixed;shape=isoRectangle;direction=west;fillColor=#F2CC8F;strokeColor=#E07A5F;fontColor=#393C56;" vertex="1" parent="JIfOrTNAelRgJO-WILz3-103">
          <mxGeometry x="156.66999999999996" y="60" width="66.67" height="40" as="geometry" />
        </mxCell>
        <mxCell id="JIfOrTNAelRgJO-WILz3-29" value="QA" style="shape=parallelogram;perimeter=parallelogramPerimeter;whiteSpace=wrap;html=1;fixedSize=1;fillColor=#F2CC8F;strokeColor=#E07A5F;fontColor=#393C56;" vertex="1" parent="JIfOrTNAelRgJO-WILz3-103">
          <mxGeometry x="360" y="141" width="90" height="30" as="geometry" />
        </mxCell>
        <mxCell id="JIfOrTNAelRgJO-WILz3-30" value="Dept Manager" style="rounded=0;whiteSpace=wrap;html=1;fillColor=#F2CC8F;strokeColor=#E07A5F;fontColor=#393C56;" vertex="1" parent="JIfOrTNAelRgJO-WILz3-103">
          <mxGeometry x="70" y="131" width="80" height="40" as="geometry" />
        </mxCell>
        <mxCell id="JIfOrTNAelRgJO-WILz3-31" value="Dept Operater" style="rounded=0;whiteSpace=wrap;html=1;fillColor=#F2CC8F;strokeColor=#E07A5F;fontColor=#393C56;" vertex="1" parent="JIfOrTNAelRgJO-WILz3-103">
          <mxGeometry x="70" y="191" width="80" height="40" as="geometry" />
        </mxCell>
        <mxCell id="JIfOrTNAelRgJO-WILz3-32" value="Dept Manager" style="rounded=0;whiteSpace=wrap;html=1;fillColor=#F2CC8F;strokeColor=#E07A5F;fontColor=#393C56;" vertex="1" parent="JIfOrTNAelRgJO-WILz3-103">
          <mxGeometry x="70" y="251" width="80" height="40" as="geometry" />
        </mxCell>
        <mxCell id="JIfOrTNAelRgJO-WILz3-33" value="QMR" style="rounded=0;whiteSpace=wrap;html=1;fillColor=#F2CC8F;strokeColor=#E07A5F;fontColor=#393C56;" vertex="1" parent="JIfOrTNAelRgJO-WILz3-103">
          <mxGeometry x="70" y="311" width="80" height="40" as="geometry" />
        </mxCell>
        <mxCell id="JIfOrTNAelRgJO-WILz3-37" value="" style="endArrow=classic;html=1;rounded=0;entryX=0.5;entryY=0;entryDx=0;entryDy=0;exitX=1.017;exitY=0.488;exitDx=0;exitDy=0;exitPerimeter=0;labelBackgroundColor=#F4F1DE;strokeColor=#E07A5F;fontColor=#393C56;" edge="1" parent="JIfOrTNAelRgJO-WILz3-103" source="JIfOrTNAelRgJO-WILz3-21" target="JIfOrTNAelRgJO-WILz3-30">
          <mxGeometry relative="1" as="geometry">
            <mxPoint x="140" y="90" as="sourcePoint" />
            <mxPoint x="20" y="231" as="targetPoint" />
            <Array as="points">
              <mxPoint x="110" y="80" />
            </Array>
          </mxGeometry>
        </mxCell>
        <mxCell id="JIfOrTNAelRgJO-WILz3-39" value="" style="endArrow=classic;html=1;rounded=0;exitX=0.5;exitY=1;exitDx=0;exitDy=0;labelBackgroundColor=#F4F1DE;strokeColor=#E07A5F;fontColor=#393C56;" edge="1" parent="JIfOrTNAelRgJO-WILz3-103" source="JIfOrTNAelRgJO-WILz3-30" target="JIfOrTNAelRgJO-WILz3-31">
          <mxGeometry width="50" height="50" relative="1" as="geometry">
            <mxPoint x="-70" y="231" as="sourcePoint" />
            <mxPoint y="231" as="targetPoint" />
          </mxGeometry>
        </mxCell>
        <mxCell id="JIfOrTNAelRgJO-WILz3-40" value="" style="endArrow=classic;html=1;rounded=0;exitX=0.5;exitY=1;exitDx=0;exitDy=0;entryX=0.5;entryY=0;entryDx=0;entryDy=0;labelBackgroundColor=#F4F1DE;strokeColor=#E07A5F;fontColor=#393C56;" edge="1" parent="JIfOrTNAelRgJO-WILz3-103" source="JIfOrTNAelRgJO-WILz3-31" target="JIfOrTNAelRgJO-WILz3-32">
          <mxGeometry width="50" height="50" relative="1" as="geometry">
            <mxPoint x="120" y="181" as="sourcePoint" />
            <mxPoint x="120" y="201" as="targetPoint" />
          </mxGeometry>
        </mxCell>
        <mxCell id="JIfOrTNAelRgJO-WILz3-41" value="" style="endArrow=classic;html=1;rounded=0;exitX=0.5;exitY=1;exitDx=0;exitDy=0;entryX=0.5;entryY=0;entryDx=0;entryDy=0;labelBackgroundColor=#F4F1DE;strokeColor=#E07A5F;fontColor=#393C56;" edge="1" parent="JIfOrTNAelRgJO-WILz3-103" source="JIfOrTNAelRgJO-WILz3-32" target="JIfOrTNAelRgJO-WILz3-33">
          <mxGeometry width="50" height="50" relative="1" as="geometry">
            <mxPoint x="130" y="191" as="sourcePoint" />
            <mxPoint x="130" y="211" as="targetPoint" />
          </mxGeometry>
        </mxCell>
        <mxCell id="JIfOrTNAelRgJO-WILz3-55" value="" style="endArrow=classic;html=1;rounded=0;exitX=0.05;exitY=0.5;exitDx=0;exitDy=0;exitPerimeter=0;entryX=0.475;entryY=0.925;entryDx=0;entryDy=0;entryPerimeter=0;labelBackgroundColor=#F4F1DE;strokeColor=#E07A5F;fontColor=#393C56;" edge="1" parent="JIfOrTNAelRgJO-WILz3-103" source="JIfOrTNAelRgJO-WILz3-21" target="JIfOrTNAelRgJO-WILz3-58">
          <mxGeometry relative="1" as="geometry">
            <mxPoint x="240" y="80" as="sourcePoint" />
            <mxPoint x="280" y="130" as="targetPoint" />
            <Array as="points">
              <mxPoint x="285" y="80" />
            </Array>
          </mxGeometry>
        </mxCell>
        <mxCell id="JIfOrTNAelRgJO-WILz3-56" value="Yes" style="edgeLabel;resizable=0;html=1;align=center;verticalAlign=middle;labelBackgroundColor=#F4F1DE;fontColor=#393C56;" connectable="0" vertex="1" parent="JIfOrTNAelRgJO-WILz3-55">
          <mxGeometry relative="1" as="geometry" />
        </mxCell>
        <mxCell id="JIfOrTNAelRgJO-WILz3-58" value="Rework หน้างาน" style="html=1;whiteSpace=wrap;aspect=fixed;shape=isoRectangle;direction=west;fillColor=#F2CC8F;strokeColor=#E07A5F;fontColor=#393C56;" vertex="1" parent="JIfOrTNAelRgJO-WILz3-103">
          <mxGeometry x="250" y="131" width="66.67" height="40" as="geometry" />
        </mxCell>
        <mxCell id="JIfOrTNAelRgJO-WILz3-59" value="PM" style="shape=parallelogram;perimeter=parallelogramPerimeter;whiteSpace=wrap;html=1;fixedSize=1;fillColor=#F2CC8F;strokeColor=#E07A5F;fontColor=#393C56;" vertex="1" parent="JIfOrTNAelRgJO-WILz3-103">
          <mxGeometry x="358.33000000000004" y="249" width="90" height="30" as="geometry" />
        </mxCell>
        <mxCell id="JIfOrTNAelRgJO-WILz3-60" value="Logistic" style="shape=parallelogram;perimeter=parallelogramPerimeter;whiteSpace=wrap;html=1;fixedSize=1;fillColor=#F2CC8F;strokeColor=#E07A5F;fontColor=#393C56;" vertex="1" parent="JIfOrTNAelRgJO-WILz3-103">
          <mxGeometry x="226.66999999999996" y="280" width="90" height="30" as="geometry" />
        </mxCell>
        <mxCell id="JIfOrTNAelRgJO-WILz3-61" value="QC" style="shape=parallelogram;perimeter=parallelogramPerimeter;whiteSpace=wrap;html=1;fixedSize=1;fillColor=#F2CC8F;strokeColor=#E07A5F;fontColor=#393C56;" vertex="1" parent="JIfOrTNAelRgJO-WILz3-103">
          <mxGeometry x="226.66999999999996" y="340" width="90" height="30" as="geometry" />
        </mxCell>
        <mxCell id="JIfOrTNAelRgJO-WILz3-62" value="WH" style="shape=parallelogram;perimeter=parallelogramPerimeter;whiteSpace=wrap;html=1;fixedSize=1;fillColor=#F2CC8F;strokeColor=#E07A5F;fontColor=#393C56;" vertex="1" parent="JIfOrTNAelRgJO-WILz3-103">
          <mxGeometry x="140" y="450" width="90" height="30" as="geometry" />
        </mxCell>
        <mxCell id="JIfOrTNAelRgJO-WILz3-65" value="Damage" style="html=1;whiteSpace=wrap;aspect=fixed;shape=isoRectangle;direction=west;fillColor=#F2CC8F;strokeColor=#E07A5F;fontColor=#393C56;" vertex="1" parent="JIfOrTNAelRgJO-WILz3-103">
          <mxGeometry x="370" y="300" width="66.67" height="40" as="geometry" />
        </mxCell>
        <mxCell id="JIfOrTNAelRgJO-WILz3-66" value="End" style="ellipse;whiteSpace=wrap;html=1;aspect=fixed;fillColor=#F2CC8F;strokeColor=#E07A5F;fontColor=#393C56;" vertex="1" parent="JIfOrTNAelRgJO-WILz3-103">
          <mxGeometry x="490" y="251" width="40" height="40" as="geometry" />
        </mxCell>
        <mxCell id="JIfOrTNAelRgJO-WILz3-67" value="Reject" style="html=1;whiteSpace=wrap;aspect=fixed;shape=isoRectangle;direction=west;fillColor=#F2CC8F;strokeColor=#E07A5F;fontColor=#393C56;" vertex="1" parent="JIfOrTNAelRgJO-WILz3-103">
          <mxGeometry x="371.65999999999997" y="191" width="66.67" height="40" as="geometry" />
        </mxCell>
        <mxCell id="JIfOrTNAelRgJO-WILz3-68" value="" style="endArrow=classic;html=1;rounded=0;entryX=0.5;entryY=0;entryDx=0;entryDy=0;labelBackgroundColor=#F4F1DE;strokeColor=#E07A5F;fontColor=#393C56;" edge="1" parent="JIfOrTNAelRgJO-WILz3-103" target="JIfOrTNAelRgJO-WILz3-66">
          <mxGeometry relative="1" as="geometry">
            <mxPoint x="440" y="210" as="sourcePoint" />
            <mxPoint x="524.9917500000001" y="251" as="targetPoint" />
            <Array as="points">
              <mxPoint x="510" y="210" />
            </Array>
          </mxGeometry>
        </mxCell>
        <mxCell id="JIfOrTNAelRgJO-WILz3-69" value="Yes" style="edgeLabel;resizable=0;html=1;align=center;verticalAlign=middle;labelBackgroundColor=#F4F1DE;fontColor=#393C56;" connectable="0" vertex="1" parent="JIfOrTNAelRgJO-WILz3-68">
          <mxGeometry relative="1" as="geometry" />
        </mxCell>
        <mxCell id="JIfOrTNAelRgJO-WILz3-70" value="" style="endArrow=classic;html=1;rounded=0;entryX=0.5;entryY=1;entryDx=0;entryDy=0;labelBackgroundColor=#F4F1DE;strokeColor=#E07A5F;fontColor=#393C56;" edge="1" parent="JIfOrTNAelRgJO-WILz3-103" target="JIfOrTNAelRgJO-WILz3-66">
          <mxGeometry relative="1" as="geometry">
            <mxPoint x="440" y="320" as="sourcePoint" />
            <mxPoint x="530.0017500000001" y="382" as="targetPoint" />
            <Array as="points">
              <mxPoint x="510" y="320" />
            </Array>
          </mxGeometry>
        </mxCell>
        <mxCell id="JIfOrTNAelRgJO-WILz3-71" value="No" style="edgeLabel;resizable=0;html=1;align=center;verticalAlign=middle;labelBackgroundColor=#F4F1DE;fontColor=#393C56;" connectable="0" vertex="1" parent="JIfOrTNAelRgJO-WILz3-70">
          <mxGeometry relative="1" as="geometry" />
        </mxCell>
        <mxCell id="JIfOrTNAelRgJO-WILz3-72" value="" style="endArrow=classic;html=1;rounded=0;exitX=0.5;exitY=1;exitDx=0;exitDy=0;entryX=0.515;entryY=0.9;entryDx=0;entryDy=0;entryPerimeter=0;labelBackgroundColor=#F4F1DE;strokeColor=#E07A5F;fontColor=#393C56;" edge="1" parent="JIfOrTNAelRgJO-WILz3-103" source="JIfOrTNAelRgJO-WILz3-29" target="JIfOrTNAelRgJO-WILz3-67">
          <mxGeometry width="50" height="50" relative="1" as="geometry">
            <mxPoint x="200" y="-20" as="sourcePoint" />
            <mxPoint x="200" y="10" as="targetPoint" />
          </mxGeometry>
        </mxCell>
        <mxCell id="JIfOrTNAelRgJO-WILz3-73" value="" style="endArrow=classic;html=1;rounded=0;exitX=0.5;exitY=0.025;exitDx=0;exitDy=0;entryX=0.5;entryY=0;entryDx=0;entryDy=0;exitPerimeter=0;labelBackgroundColor=#F4F1DE;strokeColor=#E07A5F;fontColor=#393C56;" edge="1" parent="JIfOrTNAelRgJO-WILz3-103" source="JIfOrTNAelRgJO-WILz3-67" target="JIfOrTNAelRgJO-WILz3-59">
          <mxGeometry width="50" height="50" relative="1" as="geometry">
            <mxPoint x="415" y="181" as="sourcePoint" />
            <mxPoint x="413.9949499999998" y="205" as="targetPoint" />
          </mxGeometry>
        </mxCell>
        <mxCell id="JIfOrTNAelRgJO-WILz3-75" value="" style="endArrow=classic;html=1;rounded=0;exitX=0.5;exitY=1;exitDx=0;exitDy=0;labelBackgroundColor=#F4F1DE;strokeColor=#E07A5F;fontColor=#393C56;" edge="1" parent="JIfOrTNAelRgJO-WILz3-103" source="JIfOrTNAelRgJO-WILz3-59" target="JIfOrTNAelRgJO-WILz3-65">
          <mxGeometry width="50" height="50" relative="1" as="geometry">
            <mxPoint x="414.9949999999999" y="240" as="sourcePoint" />
            <mxPoint x="413.3299999999999" y="259" as="targetPoint" />
          </mxGeometry>
        </mxCell>
        <mxCell id="JIfOrTNAelRgJO-WILz3-76" value="" style="endArrow=classic;html=1;rounded=0;exitX=0.055;exitY=0.525;exitDx=0;exitDy=0;entryX=0;entryY=0.25;entryDx=0;entryDy=0;exitPerimeter=0;labelBackgroundColor=#F4F1DE;strokeColor=#E07A5F;fontColor=#393C56;" edge="1" parent="JIfOrTNAelRgJO-WILz3-103" source="JIfOrTNAelRgJO-WILz3-58" target="JIfOrTNAelRgJO-WILz3-29">
          <mxGeometry width="50" height="50" relative="1" as="geometry">
            <mxPoint x="424.9949999999999" y="250" as="sourcePoint" />
            <mxPoint x="423.3299999999999" y="269" as="targetPoint" />
          </mxGeometry>
        </mxCell>
        <mxCell id="JIfOrTNAelRgJO-WILz3-77" value="" style="endArrow=classic;html=1;rounded=0;exitX=0.535;exitY=-0.05;exitDx=0;exitDy=0;entryX=0.604;entryY=-0.033;entryDx=0;entryDy=0;exitPerimeter=0;entryPerimeter=0;labelBackgroundColor=#F4F1DE;strokeColor=#E07A5F;fontColor=#393C56;" edge="1" parent="JIfOrTNAelRgJO-WILz3-103" source="JIfOrTNAelRgJO-WILz3-58" target="JIfOrTNAelRgJO-WILz3-60">
          <mxGeometry width="50" height="50" relative="1" as="geometry">
            <mxPoint x="434.9949999999999" y="260" as="sourcePoint" />
            <mxPoint x="433.3299999999999" y="279" as="targetPoint" />
          </mxGeometry>
        </mxCell>
        <mxCell id="JIfOrTNAelRgJO-WILz3-79" value="" style="endArrow=classic;html=1;rounded=0;exitX=1.015;exitY=0.45;exitDx=0;exitDy=0;exitPerimeter=0;entryX=1;entryY=0.5;entryDx=0;entryDy=0;labelBackgroundColor=#F4F1DE;strokeColor=#E07A5F;fontColor=#393C56;" edge="1" parent="JIfOrTNAelRgJO-WILz3-103" source="JIfOrTNAelRgJO-WILz3-65" target="JIfOrTNAelRgJO-WILz3-60">
          <mxGeometry relative="1" as="geometry">
            <mxPoint x="450" y="330" as="sourcePoint" />
            <mxPoint x="520" y="301" as="targetPoint" />
            <Array as="points">
              <mxPoint x="360" y="295" />
            </Array>
          </mxGeometry>
        </mxCell>
        <mxCell id="JIfOrTNAelRgJO-WILz3-80" value="Yes" style="edgeLabel;resizable=0;html=1;align=center;verticalAlign=middle;labelBackgroundColor=#F4F1DE;fontColor=#393C56;" connectable="0" vertex="1" parent="JIfOrTNAelRgJO-WILz3-79">
          <mxGeometry relative="1" as="geometry">
            <mxPoint x="-7" y="5" as="offset" />
          </mxGeometry>
        </mxCell>
        <mxCell id="JIfOrTNAelRgJO-WILz3-82" value="" style="endArrow=classic;html=1;rounded=0;exitX=0.5;exitY=1;exitDx=0;exitDy=0;entryX=0.5;entryY=0;entryDx=0;entryDy=0;labelBackgroundColor=#F4F1DE;strokeColor=#E07A5F;fontColor=#393C56;" edge="1" parent="JIfOrTNAelRgJO-WILz3-103" source="JIfOrTNAelRgJO-WILz3-60" target="JIfOrTNAelRgJO-WILz3-61">
          <mxGeometry width="50" height="50" relative="1" as="geometry">
            <mxPoint x="100" y="380" as="sourcePoint" />
            <mxPoint x="170" y="380" as="targetPoint" />
          </mxGeometry>
        </mxCell>
        <mxCell id="JIfOrTNAelRgJO-WILz3-83" value="" style="endArrow=classic;html=1;rounded=0;exitX=0.5;exitY=1;exitDx=0;exitDy=0;entryX=0.535;entryY=1.025;entryDx=0;entryDy=0;entryPerimeter=0;labelBackgroundColor=#F4F1DE;strokeColor=#E07A5F;fontColor=#393C56;" edge="1" parent="JIfOrTNAelRgJO-WILz3-103" source="JIfOrTNAelRgJO-WILz3-61" target="JIfOrTNAelRgJO-WILz3-84">
          <mxGeometry width="50" height="50" relative="1" as="geometry">
            <mxPoint x="100" y="380" as="sourcePoint" />
            <mxPoint x="270" y="400" as="targetPoint" />
          </mxGeometry>
        </mxCell>
        <mxCell id="JIfOrTNAelRgJO-WILz3-92" value="No" style="edgeStyle=orthogonalEdgeStyle;rounded=0;orthogonalLoop=1;jettySize=auto;html=1;labelBackgroundColor=#F4F1DE;strokeColor=#E07A5F;fontColor=#393C56;" edge="1" parent="JIfOrTNAelRgJO-WILz3-103" source="JIfOrTNAelRgJO-WILz3-84" target="JIfOrTNAelRgJO-WILz3-62">
          <mxGeometry relative="1" as="geometry" />
        </mxCell>
        <mxCell id="JIfOrTNAelRgJO-WILz3-84" value="Rework" style="html=1;whiteSpace=wrap;aspect=fixed;shape=isoRectangle;direction=west;fillColor=#F2CC8F;strokeColor=#E07A5F;fontColor=#393C56;" vertex="1" parent="JIfOrTNAelRgJO-WILz3-103">
          <mxGeometry x="240" y="400" width="66.67" height="40" as="geometry" />
        </mxCell>
        <mxCell id="JIfOrTNAelRgJO-WILz3-86" value="Planner" style="sketch=0;pointerEvents=1;shadow=0;dashed=0;html=1;strokeColor=#d79b00;fillColor=#ffe6cc;labelPosition=center;verticalLabelPosition=bottom;verticalAlign=top;outlineConnect=0;align=center;shape=mxgraph.office.users.mail_user;" vertex="1" parent="JIfOrTNAelRgJO-WILz3-103">
          <mxGeometry x="358.33000000000004" y="421" width="33.67" height="39" as="geometry" />
        </mxCell>
        <mxCell id="JIfOrTNAelRgJO-WILz3-93" value="Yes" style="edgeStyle=orthogonalEdgeStyle;rounded=0;orthogonalLoop=1;jettySize=auto;html=1;labelBackgroundColor=#F4F1DE;strokeColor=#E07A5F;fontColor=#393C56;" edge="1" parent="JIfOrTNAelRgJO-WILz3-103" source="JIfOrTNAelRgJO-WILz3-84" target="JIfOrTNAelRgJO-WILz3-86">
          <mxGeometry relative="1" as="geometry">
            <mxPoint x="400" y="420" as="targetPoint" />
            <Array as="points">
              <mxPoint x="327" y="420" />
              <mxPoint x="327" y="460" />
            </Array>
          </mxGeometry>
        </mxCell>
        <mxCell id="JIfOrTNAelRgJO-WILz3-87" value="รับคืน ตรวจสอบ" style="html=1;whiteSpace=wrap;aspect=fixed;shape=isoRectangle;direction=west;fillColor=#F2CC8F;strokeColor=#E07A5F;fontColor=#393C56;" vertex="1" parent="JIfOrTNAelRgJO-WILz3-103">
          <mxGeometry x="151.66999999999996" y="510" width="66.67" height="40" as="geometry" />
        </mxCell>
        <mxCell id="JIfOrTNAelRgJO-WILz3-94" value="" style="edgeStyle=orthogonalEdgeStyle;rounded=0;orthogonalLoop=1;jettySize=auto;html=1;labelBackgroundColor=#F4F1DE;strokeColor=#E07A5F;fontColor=#393C56;" edge="1" parent="JIfOrTNAelRgJO-WILz3-103" source="JIfOrTNAelRgJO-WILz3-62" target="JIfOrTNAelRgJO-WILz3-87">
          <mxGeometry relative="1" as="geometry" />
        </mxCell>
        <mxCell id="JIfOrTNAelRgJO-WILz3-88" value="PD WIP" style="shape=parallelogram;perimeter=parallelogramPerimeter;whiteSpace=wrap;html=1;fixedSize=1;fillColor=#F2CC8F;strokeColor=#E07A5F;fontColor=#393C56;" vertex="1" parent="JIfOrTNAelRgJO-WILz3-103">
          <mxGeometry x="10" y="515" width="90" height="30" as="geometry" />
        </mxCell>
        <mxCell id="JIfOrTNAelRgJO-WILz3-95" value="Yes" style="edgeStyle=orthogonalEdgeStyle;rounded=0;orthogonalLoop=1;jettySize=auto;html=1;labelBackgroundColor=#F4F1DE;strokeColor=#E07A5F;fontColor=#393C56;" edge="1" parent="JIfOrTNAelRgJO-WILz3-103" source="JIfOrTNAelRgJO-WILz3-87" target="JIfOrTNAelRgJO-WILz3-88">
          <mxGeometry relative="1" as="geometry" />
        </mxCell>
        <mxCell id="JIfOrTNAelRgJO-WILz3-89" value="Account" style="shape=parallelogram;perimeter=parallelogramPerimeter;whiteSpace=wrap;html=1;fixedSize=1;fillColor=#F2CC8F;strokeColor=#E07A5F;fontColor=#393C56;" vertex="1" parent="JIfOrTNAelRgJO-WILz3-103">
          <mxGeometry x="140.01" y="585" width="90" height="30" as="geometry" />
        </mxCell>
        <mxCell id="JIfOrTNAelRgJO-WILz3-97" value="No" style="edgeStyle=orthogonalEdgeStyle;rounded=0;orthogonalLoop=1;jettySize=auto;html=1;labelBackgroundColor=#F4F1DE;strokeColor=#E07A5F;fontColor=#393C56;" edge="1" parent="JIfOrTNAelRgJO-WILz3-103" source="JIfOrTNAelRgJO-WILz3-87" target="JIfOrTNAelRgJO-WILz3-89">
          <mxGeometry relative="1" as="geometry" />
        </mxCell>
        <mxCell id="JIfOrTNAelRgJO-WILz3-90" value="CS" style="shape=parallelogram;perimeter=parallelogramPerimeter;whiteSpace=wrap;html=1;fixedSize=1;fillColor=#F2CC8F;strokeColor=#E07A5F;fontColor=#393C56;" vertex="1" parent="JIfOrTNAelRgJO-WILz3-103">
          <mxGeometry x="250" y="585" width="90" height="30" as="geometry" />
        </mxCell>
        <mxCell id="JIfOrTNAelRgJO-WILz3-98" value="" style="edgeStyle=orthogonalEdgeStyle;rounded=0;orthogonalLoop=1;jettySize=auto;html=1;labelBackgroundColor=#F4F1DE;strokeColor=#E07A5F;fontColor=#393C56;" edge="1" parent="JIfOrTNAelRgJO-WILz3-103" source="JIfOrTNAelRgJO-WILz3-89" target="JIfOrTNAelRgJO-WILz3-90">
          <mxGeometry relative="1" as="geometry" />
        </mxCell>
        <mxCell id="JIfOrTNAelRgJO-WILz3-91" value="Logistic" style="shape=parallelogram;perimeter=parallelogramPerimeter;whiteSpace=wrap;html=1;fixedSize=1;fillColor=#F2CC8F;strokeColor=#E07A5F;fontColor=#393C56;" vertex="1" parent="JIfOrTNAelRgJO-WILz3-103">
          <mxGeometry x="358.33000000000004" y="585" width="90" height="30" as="geometry" />
        </mxCell>
        <mxCell id="JIfOrTNAelRgJO-WILz3-99" value="" style="edgeStyle=orthogonalEdgeStyle;rounded=0;orthogonalLoop=1;jettySize=auto;html=1;labelBackgroundColor=#F4F1DE;strokeColor=#E07A5F;fontColor=#393C56;" edge="1" parent="JIfOrTNAelRgJO-WILz3-103" source="JIfOrTNAelRgJO-WILz3-90" target="JIfOrTNAelRgJO-WILz3-91">
          <mxGeometry relative="1" as="geometry" />
        </mxCell>
        <mxCell id="JIfOrTNAelRgJO-WILz3-96" value="End" style="ellipse;whiteSpace=wrap;html=1;aspect=fixed;fillColor=#F2CC8F;strokeColor=#E07A5F;fontColor=#393C56;" vertex="1" parent="JIfOrTNAelRgJO-WILz3-103">
          <mxGeometry x="470" y="580" width="40" height="40" as="geometry" />
        </mxCell>
        <mxCell id="JIfOrTNAelRgJO-WILz3-100" value="" style="edgeStyle=orthogonalEdgeStyle;rounded=0;orthogonalLoop=1;jettySize=auto;html=1;labelBackgroundColor=#F4F1DE;strokeColor=#E07A5F;fontColor=#393C56;" edge="1" parent="JIfOrTNAelRgJO-WILz3-103" source="JIfOrTNAelRgJO-WILz3-91" target="JIfOrTNAelRgJO-WILz3-96">
          <mxGeometry relative="1" as="geometry" />
        </mxCell>
        <mxCell id="JIfOrTNAelRgJO-WILz3-101" value="" style="edgeStyle=elbowEdgeStyle;elbow=horizontal;endArrow=classic;html=1;rounded=0;exitX=0.5;exitY=1;exitDx=0;exitDy=0;entryX=0;entryY=0.5;entryDx=0;entryDy=0;labelBackgroundColor=#F4F1DE;strokeColor=#E07A5F;fontColor=#393C56;" edge="1" parent="JIfOrTNAelRgJO-WILz3-103" source="JIfOrTNAelRgJO-WILz3-88" target="JIfOrTNAelRgJO-WILz3-89">
          <mxGeometry width="50" height="50" relative="1" as="geometry">
            <mxPoint x="100" y="520" as="sourcePoint" />
            <mxPoint x="180" y="440" as="targetPoint" />
            <Array as="points">
              <mxPoint x="55" y="570" />
            </Array>
          </mxGeometry>
        </mxCell>
        <mxCell id="JIfOrTNAelRgJO-WILz3-42" value="Split" style="strokeWidth=2;html=1;shape=mxgraph.flowchart.multi-document;whiteSpace=wrap;fillColor=#F2CC8F;strokeColor=#E07A5F;fontColor=#393C56;" vertex="1" parent="JIfOrTNAelRgJO-WILz3-103">
          <mxGeometry x="470.00000000000006" y="-10" width="70" height="40" as="geometry" />
        </mxCell>
        <mxCell id="ZnxTaej_w4I18vFR1k2f-1" value="ฟอร์ม ใบรับคืนของลูกค้า" style="shape=document;whiteSpace=wrap;html=1;boundedLbl=1;fillColor=#fff2cc;strokeColor=#d6b656;" vertex="1" parent="JIfOrTNAelRgJO-WILz3-103">
          <mxGeometry x="291.66" y="80" width="80" height="50" as="geometry" />
        </mxCell>
        <mxCell id="JIfOrTNAelRgJO-WILz3-104" value="" style="endArrow=classic;html=1;rounded=0;entryX=0.5;entryY=0.9;entryDx=0;entryDy=0;entryPerimeter=0;labelBackgroundColor=#F4F1DE;strokeColor=#E07A5F;fontColor=#393C56;" edge="1" parent="1" target="JIfOrTNAelRgJO-WILz3-21">
          <mxGeometry width="50" height="50" relative="1" as="geometry">
            <mxPoint x="543" y="210" as="sourcePoint" />
            <mxPoint x="740" y="180" as="targetPoint" />
          </mxGeometry>
        </mxCell>
        <mxCell id="yM2ILhgQoYP5EuEDguvp-2" value="Reject" style="endArrow=none;html=1;rounded=0;entryX=0.525;entryY=0.05;entryDx=0;entryDy=0;labelBackgroundColor=#F4F1DE;strokeColor=#E07A5F;fontColor=#393C56;entryPerimeter=0;" edge="1" parent="1" target="xjm1Cs8kN3EtSxawpRm1-1">
          <mxGeometry width="50" height="50" relative="1" as="geometry">
            <mxPoint x="395" y="20" as="sourcePoint" />
            <mxPoint x="320" y="220" as="targetPoint" />
          </mxGeometry>
        </mxCell>
        <mxCell id="yM2ILhgQoYP5EuEDguvp-3" value="" style="edgeStyle=elbowEdgeStyle;elbow=horizontal;endArrow=classic;html=1;rounded=0;entryX=0.5;entryY=0;entryDx=0;entryDy=0;labelBackgroundColor=#F4F1DE;strokeColor=#E07A5F;fontColor=#393C56;" edge="1" parent="1" target="JIfOrTNAelRgJO-WILz3-23">
          <mxGeometry width="50" height="50" relative="1" as="geometry">
            <mxPoint x="390" y="20" as="sourcePoint" />
            <mxPoint x="760" y="300" as="targetPoint" />
            <Array as="points">
              <mxPoint x="832" y="20" />
            </Array>
          </mxGeometry>
        </mxCell>
        <mxCell id="xjm1Cs8kN3EtSxawpRm1-9" value="" style="edgeStyle=orthogonalEdgeStyle;rounded=0;orthogonalLoop=1;jettySize=auto;html=1;strokeColor=#E07A5F;fontColor=#393C56;fontSize=12;fillColor=#F2CC8F;fontStyle=1;startSize=23;" edge="1" parent="1" source="xjm1Cs8kN3EtSxawpRm1-1" target="JIfOrTNAelRgJO-WILz3-7">
          <mxGeometry relative="1" as="geometry" />
        </mxCell>
        <mxCell id="xjm1Cs8kN3EtSxawpRm1-1" value="Decision" style="html=1;whiteSpace=wrap;aspect=fixed;shape=isoRectangle;fillColor=#F2CC8F;strokeColor=#E07A5F;fontColor=#393C56;" vertex="1" parent="1">
          <mxGeometry x="360" y="40" width="66.67" height="40" as="geometry" />
        </mxCell>
        <mxCell id="xjm1Cs8kN3EtSxawpRm1-5" value="" style="endArrow=classic;html=1;rounded=0;strokeColor=#E07A5F;fontColor=#393C56;exitX=0.48;exitY=1;exitDx=0;exitDy=0;exitPerimeter=0;entryX=0.072;entryY=-0.002;entryDx=0;entryDy=0;entryPerimeter=0;fontSize=12;fillColor=#F2CC8F;fontStyle=1;startSize=23;" edge="1" parent="1" source="xjm1Cs8kN3EtSxawpRm1-1" target="JIfOrTNAelRgJO-WILz3-103">
          <mxGeometry width="50" height="50" relative="1" as="geometry">
            <mxPoint x="490" y="140" as="sourcePoint" />
            <mxPoint x="560" y="140" as="targetPoint" />
          </mxGeometry>
        </mxCell>
        <mxCell id="xjm1Cs8kN3EtSxawpRm1-7" value="Approve" style="edgeLabel;resizable=0;html=1;align=center;verticalAlign=middle;labelBackgroundColor=#F4F1DE;fontColor=#393C56;" connectable="0" vertex="1" parent="1">
          <mxGeometry x="393.3399794250258" y="120.0047088612522" as="geometry" />
        </mxCell>
        <mxCell id="xjm1Cs8kN3EtSxawpRm1-8" value="Send" style="edgeLabel;resizable=0;html=1;align=center;verticalAlign=middle;labelBackgroundColor=#F4F1DE;fontColor=#393C56;" connectable="0" vertex="1" parent="1">
          <mxGeometry x="426.66997942502576" y="80.0047088612522" as="geometry">
            <mxPoint x="3" y="-2" as="offset" />
          </mxGeometry>
        </mxCell>
        <mxCell id="5Fzmc9VXGLprYbqFvWe1-1" value="End" style="ellipse;whiteSpace=wrap;html=1;aspect=fixed;fillColor=#F2CC8F;strokeColor=#E07A5F;fontColor=#393C56;" vertex="1" parent="1">
          <mxGeometry x="959.9999999999999" y="470" width="40" height="40" as="geometry" />
        </mxCell>
      </root>
    </mxGraphModel>
  </diagram>
  <diagram id="B94r5CFDhL6Ziuzq7Oi6" name="20221128">
    <mxGraphModel dx="1102" dy="582" grid="1" gridSize="10" guides="1" tooltips="1" connect="1" arrows="1" fold="1" page="1" pageScale="1" pageWidth="1169" pageHeight="827" math="0" shadow="0">
      <root>
        <mxCell id="0" />
        <mxCell id="1" parent="0" />
        <mxCell id="DhFWDe7O-0C_lBzoMDP4-1" value="Driver" style="rounded=0;whiteSpace=wrap;html=1;fillColor=#FAD9D5;strokeColor=#D0CEE2;fontColor=#1A1A1A;" vertex="1" parent="1">
          <mxGeometry x="120" y="40" width="80" height="40" as="geometry" />
        </mxCell>
        <mxCell id="DhFWDe7O-0C_lBzoMDP4-2" value="Sales/CS" style="rounded=0;whiteSpace=wrap;html=1;fillColor=#FAD9D5;strokeColor=#D0CEE2;fontColor=#1A1A1A;" vertex="1" parent="1">
          <mxGeometry x="120" y="90" width="80" height="40" as="geometry" />
        </mxCell>
        <mxCell id="DhFWDe7O-0C_lBzoMDP4-3" value="Marketing" style="rounded=0;whiteSpace=wrap;html=1;fillColor=#FAD9D5;strokeColor=#D0CEE2;fontColor=#1A1A1A;" vertex="1" parent="1">
          <mxGeometry x="120" y="140" width="80" height="40" as="geometry" />
        </mxCell>
        <mxCell id="DhFWDe7O-0C_lBzoMDP4-4" value="Customer" style="rounded=0;whiteSpace=wrap;html=1;fillColor=#FAD9D5;strokeColor=#D0CEE2;fontColor=#1A1A1A;" vertex="1" parent="1">
          <mxGeometry x="120" y="190" width="80" height="40" as="geometry" />
        </mxCell>
        <mxCell id="DhFWDe7O-0C_lBzoMDP4-5" value="Sales&lt;br&gt;Manager" style="rounded=0;whiteSpace=wrap;html=1;fillColor=#FAD9D5;strokeColor=#D0CEE2;fontColor=#1A1A1A;" vertex="1" parent="1">
          <mxGeometry x="340" y="100" width="80" height="40" as="geometry" />
        </mxCell>
        <mxCell id="DhFWDe7O-0C_lBzoMDP4-7" value="Marketing" style="rounded=0;whiteSpace=wrap;html=1;fillColor=#FAD9D5;strokeColor=#D0CEE2;fontColor=#1A1A1A;" vertex="1" parent="1">
          <mxGeometry x="640" y="40" width="80" height="40" as="geometry" />
        </mxCell>
        <mxCell id="DhFWDe7O-0C_lBzoMDP4-8" value="QMR" style="rounded=0;whiteSpace=wrap;html=1;fillColor=#FAD9D5;strokeColor=#D0CEE2;fontColor=#1A1A1A;" vertex="1" parent="1">
          <mxGeometry x="905.01" y="110" width="80" height="40" as="geometry" />
        </mxCell>
        <mxCell id="DhFWDe7O-0C_lBzoMDP4-9" value="" style="edgeStyle=elbowEdgeStyle;elbow=horizontal;endArrow=classic;html=1;rounded=0;exitX=1;exitY=0.5;exitDx=0;exitDy=0;entryX=0.007;entryY=0.493;entryDx=0;entryDy=0;entryPerimeter=0;strokeColor=#09555B;fontColor=#1A1A1A;" edge="1" parent="1" source="DhFWDe7O-0C_lBzoMDP4-4" target="DhFWDe7O-0C_lBzoMDP4-79">
          <mxGeometry width="50" height="50" relative="1" as="geometry">
            <mxPoint x="600" y="330" as="sourcePoint" />
            <mxPoint x="650" y="280" as="targetPoint" />
            <Array as="points">
              <mxPoint x="240" y="130" />
            </Array>
          </mxGeometry>
        </mxCell>
        <mxCell id="DhFWDe7O-0C_lBzoMDP4-10" value="" style="edgeStyle=elbowEdgeStyle;elbow=horizontal;endArrow=classic;html=1;rounded=0;exitX=1;exitY=0.5;exitDx=0;exitDy=0;entryX=0.06;entryY=0.522;entryDx=0;entryDy=0;entryPerimeter=0;strokeColor=#09555B;fontColor=#1A1A1A;" edge="1" parent="1" source="DhFWDe7O-0C_lBzoMDP4-3" target="DhFWDe7O-0C_lBzoMDP4-79">
          <mxGeometry width="50" height="50" relative="1" as="geometry">
            <mxPoint x="210" y="310" as="sourcePoint" />
            <mxPoint x="270" y="60" as="targetPoint" />
            <Array as="points">
              <mxPoint x="240" y="110" />
            </Array>
          </mxGeometry>
        </mxCell>
        <mxCell id="DhFWDe7O-0C_lBzoMDP4-11" value="" style="edgeStyle=elbowEdgeStyle;elbow=horizontal;endArrow=classic;html=1;rounded=0;exitX=1;exitY=0.5;exitDx=0;exitDy=0;entryX=0.007;entryY=0.522;entryDx=0;entryDy=0;entryPerimeter=0;strokeColor=#09555B;fontColor=#1A1A1A;" edge="1" parent="1" source="DhFWDe7O-0C_lBzoMDP4-2" target="DhFWDe7O-0C_lBzoMDP4-79">
          <mxGeometry width="50" height="50" relative="1" as="geometry">
            <mxPoint x="220" y="320" as="sourcePoint" />
            <mxPoint x="300" y="80" as="targetPoint" />
            <Array as="points">
              <mxPoint x="240" y="80" />
            </Array>
          </mxGeometry>
        </mxCell>
        <mxCell id="DhFWDe7O-0C_lBzoMDP4-12" value="" style="edgeStyle=elbowEdgeStyle;elbow=horizontal;endArrow=classic;html=1;rounded=0;exitX=1;exitY=0.5;exitDx=0;exitDy=0;entryX=0.007;entryY=0.493;entryDx=0;entryDy=0;entryPerimeter=0;strokeColor=#09555B;fontColor=#1A1A1A;" edge="1" parent="1" source="DhFWDe7O-0C_lBzoMDP4-1" target="DhFWDe7O-0C_lBzoMDP4-79">
          <mxGeometry width="50" height="50" relative="1" as="geometry">
            <mxPoint x="230" y="330" as="sourcePoint" />
            <mxPoint x="310" y="90" as="targetPoint" />
          </mxGeometry>
        </mxCell>
        <mxCell id="DhFWDe7O-0C_lBzoMDP4-13" value="Decision" style="html=1;whiteSpace=wrap;aspect=fixed;shape=isoRectangle;rounded=0;fillColor=#FAD9D5;strokeColor=#D0CEE2;fontColor=#1A1A1A;" vertex="1" parent="1">
          <mxGeometry x="911.67" y="40" width="66.67" height="40" as="geometry" />
        </mxCell>
        <mxCell id="DhFWDe7O-0C_lBzoMDP4-14" value="" style="endArrow=classic;html=1;rounded=0;entryX=0.015;entryY=0.525;entryDx=0;entryDy=0;exitX=1;exitY=0.5;exitDx=0;exitDy=0;strokeColor=#09555B;fontColor=#1A1A1A;entryPerimeter=0;" edge="1" parent="1" source="DhFWDe7O-0C_lBzoMDP4-5" target="GTsnGSvOFYT3wbNIVOu_-3">
          <mxGeometry width="50" height="50" relative="1" as="geometry">
            <mxPoint x="460" y="30" as="sourcePoint" />
            <mxPoint x="850" y="240" as="targetPoint" />
          </mxGeometry>
        </mxCell>
        <mxCell id="DhFWDe7O-0C_lBzoMDP4-15" value="" style="endArrow=classic;html=1;rounded=0;entryX=0;entryY=0.5;entryDx=0;entryDy=0;exitX=1.004;exitY=0.493;exitDx=0;exitDy=0;exitPerimeter=0;strokeColor=#09555B;fontColor=#1A1A1A;" edge="1" parent="1" source="DhFWDe7O-0C_lBzoMDP4-79" target="DhFWDe7O-0C_lBzoMDP4-7">
          <mxGeometry width="50" height="50" relative="1" as="geometry">
            <mxPoint x="570" y="60" as="sourcePoint" />
            <mxPoint x="730" y="120" as="targetPoint" />
          </mxGeometry>
        </mxCell>
        <mxCell id="DhFWDe7O-0C_lBzoMDP4-85" value="No" style="edgeLabel;html=1;align=center;verticalAlign=middle;resizable=0;points=[];rounded=0;fontColor=#1A1A1A;" vertex="1" connectable="0" parent="DhFWDe7O-0C_lBzoMDP4-15">
          <mxGeometry x="-0.2524" y="-1" relative="1" as="geometry">
            <mxPoint as="offset" />
          </mxGeometry>
        </mxCell>
        <mxCell id="DhFWDe7O-0C_lBzoMDP4-16" value="" style="endArrow=classic;html=1;rounded=0;exitX=1;exitY=0.5;exitDx=0;exitDy=0;entryX=0.06;entryY=0.5;entryDx=0;entryDy=0;entryPerimeter=0;strokeColor=#09555B;fontColor=#1A1A1A;" edge="1" parent="1" source="DhFWDe7O-0C_lBzoMDP4-7" target="DhFWDe7O-0C_lBzoMDP4-13">
          <mxGeometry width="50" height="50" relative="1" as="geometry">
            <mxPoint x="580" y="80" as="sourcePoint" />
            <mxPoint x="620" y="80" as="targetPoint" />
          </mxGeometry>
        </mxCell>
        <mxCell id="DhFWDe7O-0C_lBzoMDP4-17" value="" style="endArrow=classic;html=1;rounded=0;exitX=0.5;exitY=1;exitDx=0;exitDy=0;entryX=0.723;entryY=0;entryDx=0;entryDy=0;strokeColor=#09555B;fontColor=#1A1A1A;entryPerimeter=0;" edge="1" parent="1" source="DhFWDe7O-0C_lBzoMDP4-8" target="DhFWDe7O-0C_lBzoMDP4-24">
          <mxGeometry width="50" height="50" relative="1" as="geometry">
            <mxPoint x="620" y="240" as="sourcePoint" />
            <mxPoint x="822.9064220183486" y="167" as="targetPoint" />
          </mxGeometry>
        </mxCell>
        <mxCell id="DhFWDe7O-0C_lBzoMDP4-18" value="Start" style="ellipse;whiteSpace=wrap;html=1;aspect=fixed;rounded=0;fillColor=#FAD9D5;strokeColor=#D0CEE2;fontColor=#1A1A1A;" vertex="1" parent="1">
          <mxGeometry x="40" y="40" width="40" height="40" as="geometry" />
        </mxCell>
        <mxCell id="DhFWDe7O-0C_lBzoMDP4-19" value="End" style="ellipse;whiteSpace=wrap;html=1;aspect=fixed;rounded=0;fillColor=#FAD9D5;strokeColor=#D0CEE2;fontColor=#1A1A1A;" vertex="1" parent="1">
          <mxGeometry x="1053.34" y="40" width="40" height="40" as="geometry" />
        </mxCell>
        <mxCell id="DhFWDe7O-0C_lBzoMDP4-20" value="RE" style="endArrow=classic;html=1;rounded=0;exitX=0.99;exitY=0.475;exitDx=0;exitDy=0;exitPerimeter=0;strokeColor=#09555B;fontColor=#1A1A1A;" edge="1" parent="1" source="DhFWDe7O-0C_lBzoMDP4-13" target="DhFWDe7O-0C_lBzoMDP4-19">
          <mxGeometry relative="1" as="geometry">
            <mxPoint x="1011.67" y="40" as="sourcePoint" />
            <mxPoint x="871.67" y="160" as="targetPoint" />
          </mxGeometry>
        </mxCell>
        <mxCell id="DhFWDe7O-0C_lBzoMDP4-21" value="Reject" style="edgeLabel;resizable=0;html=1;align=center;verticalAlign=middle;rounded=0;fontColor=#1A1A1A;" connectable="0" vertex="1" parent="DhFWDe7O-0C_lBzoMDP4-20">
          <mxGeometry relative="1" as="geometry" />
        </mxCell>
        <mxCell id="DhFWDe7O-0C_lBzoMDP4-22" value="" style="endArrow=classic;html=1;rounded=0;exitX=0.48;exitY=1;exitDx=0;exitDy=0;exitPerimeter=0;strokeColor=#09555B;fontColor=#1A1A1A;" edge="1" parent="1" source="DhFWDe7O-0C_lBzoMDP4-13" target="DhFWDe7O-0C_lBzoMDP4-8">
          <mxGeometry relative="1" as="geometry">
            <mxPoint x="701.67" y="160" as="sourcePoint" />
            <mxPoint x="801.67" y="160" as="targetPoint" />
          </mxGeometry>
        </mxCell>
        <mxCell id="DhFWDe7O-0C_lBzoMDP4-23" value="Approve" style="edgeLabel;resizable=0;html=1;align=center;verticalAlign=middle;rounded=0;fontColor=#1A1A1A;" connectable="0" vertex="1" parent="DhFWDe7O-0C_lBzoMDP4-22">
          <mxGeometry relative="1" as="geometry" />
        </mxCell>
        <mxCell id="C-YRyCGsgUnsSnCfBO8c-2" value="" style="edgeStyle=orthogonalEdgeStyle;rounded=0;orthogonalLoop=1;jettySize=auto;html=1;strokeColor=#09555B;fontColor=#1A1A1A;" edge="1" parent="1" source="DhFWDe7O-0C_lBzoMDP4-24" target="C-YRyCGsgUnsSnCfBO8c-1">
          <mxGeometry relative="1" as="geometry" />
        </mxCell>
        <mxCell id="DhFWDe7O-0C_lBzoMDP4-24" value="Subflow" style="swimlane;whiteSpace=wrap;html=1;rounded=0;fillColor=#F2CC8F;strokeColor=#E07A5F;fontColor=#393C56;" vertex="1" parent="1">
          <mxGeometry x="553.3399999999999" y="180" width="540" height="620" as="geometry" />
        </mxCell>
        <mxCell id="DhFWDe7O-0C_lBzoMDP4-25" value="Has &lt;br&gt;Return" style="html=1;whiteSpace=wrap;aspect=fixed;shape=isoRectangle;direction=west;rounded=0;fillColor=#F2CC8F;strokeColor=#E07A5F;fontColor=#393C56;fontStyle=1;startSize=23;" vertex="1" parent="DhFWDe7O-0C_lBzoMDP4-24">
          <mxGeometry x="156.66999999999996" y="60" width="66.67" height="40" as="geometry" />
        </mxCell>
        <mxCell id="DhFWDe7O-0C_lBzoMDP4-26" value="QA" style="shape=parallelogram;perimeter=parallelogramPerimeter;whiteSpace=wrap;html=1;fixedSize=1;rounded=0;fillColor=#F2CC8F;strokeColor=#E07A5F;fontColor=#393C56;fontStyle=1;startSize=23;" vertex="1" parent="DhFWDe7O-0C_lBzoMDP4-24">
          <mxGeometry x="360" y="141" width="90" height="30" as="geometry" />
        </mxCell>
        <mxCell id="DhFWDe7O-0C_lBzoMDP4-27" value="Dept Manager" style="rounded=0;whiteSpace=wrap;html=1;fillColor=#F2CC8F;strokeColor=#E07A5F;fontColor=#393C56;fontStyle=1;startSize=23;" vertex="1" parent="DhFWDe7O-0C_lBzoMDP4-24">
          <mxGeometry x="70" y="131" width="80" height="40" as="geometry" />
        </mxCell>
        <mxCell id="DhFWDe7O-0C_lBzoMDP4-28" value="Dept Operater" style="rounded=0;whiteSpace=wrap;html=1;fillColor=#F2CC8F;strokeColor=#E07A5F;fontColor=#393C56;fontStyle=1;startSize=23;" vertex="1" parent="DhFWDe7O-0C_lBzoMDP4-24">
          <mxGeometry x="70" y="191" width="80" height="40" as="geometry" />
        </mxCell>
        <mxCell id="DhFWDe7O-0C_lBzoMDP4-29" value="Dept Manager" style="rounded=0;whiteSpace=wrap;html=1;fillColor=#F2CC8F;strokeColor=#E07A5F;fontColor=#393C56;fontStyle=1;startSize=23;" vertex="1" parent="DhFWDe7O-0C_lBzoMDP4-24">
          <mxGeometry x="70" y="251" width="80" height="40" as="geometry" />
        </mxCell>
        <mxCell id="DhFWDe7O-0C_lBzoMDP4-30" value="QMR" style="rounded=0;whiteSpace=wrap;html=1;fillColor=#F2CC8F;strokeColor=#E07A5F;fontColor=#393C56;fontStyle=1;startSize=23;" vertex="1" parent="DhFWDe7O-0C_lBzoMDP4-24">
          <mxGeometry x="70" y="311" width="80" height="40" as="geometry" />
        </mxCell>
        <mxCell id="DhFWDe7O-0C_lBzoMDP4-31" value="" style="endArrow=classic;html=1;rounded=0;entryX=0.5;entryY=0;entryDx=0;entryDy=0;exitX=1.017;exitY=0.488;exitDx=0;exitDy=0;exitPerimeter=0;strokeColor=#E07A5F;fontColor=#393C56;fontSize=12;fontStyle=1;startSize=23;fillColor=#F2CC8F;" edge="1" parent="DhFWDe7O-0C_lBzoMDP4-24" source="DhFWDe7O-0C_lBzoMDP4-25" target="DhFWDe7O-0C_lBzoMDP4-27">
          <mxGeometry relative="1" as="geometry">
            <mxPoint x="140" y="90" as="sourcePoint" />
            <mxPoint x="20" y="231" as="targetPoint" />
            <Array as="points">
              <mxPoint x="110" y="80" />
            </Array>
          </mxGeometry>
        </mxCell>
        <mxCell id="DhFWDe7O-0C_lBzoMDP4-32" value="" style="endArrow=classic;html=1;rounded=0;exitX=0.5;exitY=1;exitDx=0;exitDy=0;strokeColor=#E07A5F;fontColor=#393C56;fontSize=12;fontStyle=1;startSize=23;fillColor=#F2CC8F;" edge="1" parent="DhFWDe7O-0C_lBzoMDP4-24" source="DhFWDe7O-0C_lBzoMDP4-27" target="DhFWDe7O-0C_lBzoMDP4-28">
          <mxGeometry width="50" height="50" relative="1" as="geometry">
            <mxPoint x="-70" y="231" as="sourcePoint" />
            <mxPoint y="231" as="targetPoint" />
          </mxGeometry>
        </mxCell>
        <mxCell id="DhFWDe7O-0C_lBzoMDP4-33" value="" style="endArrow=classic;html=1;rounded=0;exitX=0.5;exitY=1;exitDx=0;exitDy=0;entryX=0.5;entryY=0;entryDx=0;entryDy=0;strokeColor=#E07A5F;fontColor=#393C56;fontSize=12;fontStyle=1;startSize=23;fillColor=#F2CC8F;" edge="1" parent="DhFWDe7O-0C_lBzoMDP4-24" source="DhFWDe7O-0C_lBzoMDP4-28" target="DhFWDe7O-0C_lBzoMDP4-29">
          <mxGeometry width="50" height="50" relative="1" as="geometry">
            <mxPoint x="120" y="181" as="sourcePoint" />
            <mxPoint x="120" y="201" as="targetPoint" />
          </mxGeometry>
        </mxCell>
        <mxCell id="DhFWDe7O-0C_lBzoMDP4-34" value="" style="endArrow=classic;html=1;rounded=0;exitX=0.5;exitY=1;exitDx=0;exitDy=0;entryX=0.5;entryY=0;entryDx=0;entryDy=0;strokeColor=#E07A5F;fontColor=#393C56;fontSize=12;fontStyle=1;startSize=23;fillColor=#F2CC8F;" edge="1" parent="DhFWDe7O-0C_lBzoMDP4-24" source="DhFWDe7O-0C_lBzoMDP4-29" target="DhFWDe7O-0C_lBzoMDP4-30">
          <mxGeometry width="50" height="50" relative="1" as="geometry">
            <mxPoint x="130" y="191" as="sourcePoint" />
            <mxPoint x="130" y="211" as="targetPoint" />
          </mxGeometry>
        </mxCell>
        <mxCell id="DhFWDe7O-0C_lBzoMDP4-35" value="" style="endArrow=classic;html=1;rounded=0;exitX=0.05;exitY=0.5;exitDx=0;exitDy=0;exitPerimeter=0;entryX=0.475;entryY=0.925;entryDx=0;entryDy=0;entryPerimeter=0;strokeColor=#E07A5F;fontColor=#393C56;fontSize=12;fontStyle=1;startSize=23;fillColor=#F2CC8F;" edge="1" parent="DhFWDe7O-0C_lBzoMDP4-24" source="DhFWDe7O-0C_lBzoMDP4-25" target="DhFWDe7O-0C_lBzoMDP4-37">
          <mxGeometry relative="1" as="geometry">
            <mxPoint x="240" y="80" as="sourcePoint" />
            <mxPoint x="280" y="130" as="targetPoint" />
            <Array as="points">
              <mxPoint x="285" y="80" />
            </Array>
          </mxGeometry>
        </mxCell>
        <mxCell id="DhFWDe7O-0C_lBzoMDP4-36" value="Yes" style="edgeLabel;resizable=0;html=1;align=center;verticalAlign=middle;rounded=0;fontColor=#393C56;fontSize=12;fillColor=#F2CC8F;strokeColor=#E07A5F;fontStyle=1;startSize=23;" connectable="0" vertex="1" parent="DhFWDe7O-0C_lBzoMDP4-35">
          <mxGeometry relative="1" as="geometry" />
        </mxCell>
        <mxCell id="DhFWDe7O-0C_lBzoMDP4-37" value="Rework หน้างาน" style="html=1;whiteSpace=wrap;aspect=fixed;shape=isoRectangle;direction=west;rounded=0;fillColor=#F2CC8F;strokeColor=#E07A5F;fontColor=#393C56;fontStyle=1;startSize=23;" vertex="1" parent="DhFWDe7O-0C_lBzoMDP4-24">
          <mxGeometry x="250" y="131" width="66.67" height="40" as="geometry" />
        </mxCell>
        <mxCell id="DhFWDe7O-0C_lBzoMDP4-38" value="PM" style="shape=parallelogram;perimeter=parallelogramPerimeter;whiteSpace=wrap;html=1;fixedSize=1;rounded=0;fillColor=#F2CC8F;strokeColor=#E07A5F;fontColor=#393C56;fontStyle=1;startSize=23;" vertex="1" parent="DhFWDe7O-0C_lBzoMDP4-24">
          <mxGeometry x="358.33000000000004" y="249" width="90" height="30" as="geometry" />
        </mxCell>
        <mxCell id="DhFWDe7O-0C_lBzoMDP4-39" value="Logistic" style="shape=parallelogram;perimeter=parallelogramPerimeter;whiteSpace=wrap;html=1;fixedSize=1;rounded=0;fillColor=#F2CC8F;strokeColor=#E07A5F;fontColor=#393C56;fontStyle=1;startSize=23;" vertex="1" parent="DhFWDe7O-0C_lBzoMDP4-24">
          <mxGeometry x="226.66999999999996" y="280" width="90" height="30" as="geometry" />
        </mxCell>
        <mxCell id="DhFWDe7O-0C_lBzoMDP4-40" value="QC" style="shape=parallelogram;perimeter=parallelogramPerimeter;whiteSpace=wrap;html=1;fixedSize=1;rounded=0;fillColor=#F2CC8F;strokeColor=#E07A5F;fontColor=#393C56;fontStyle=1;startSize=23;" vertex="1" parent="DhFWDe7O-0C_lBzoMDP4-24">
          <mxGeometry x="226.66999999999996" y="340" width="90" height="30" as="geometry" />
        </mxCell>
        <mxCell id="DhFWDe7O-0C_lBzoMDP4-41" value="WH" style="shape=parallelogram;perimeter=parallelogramPerimeter;whiteSpace=wrap;html=1;fixedSize=1;rounded=0;fillColor=#F2CC8F;strokeColor=#E07A5F;fontColor=#393C56;fontStyle=1;startSize=23;" vertex="1" parent="DhFWDe7O-0C_lBzoMDP4-24">
          <mxGeometry x="140" y="450" width="90" height="30" as="geometry" />
        </mxCell>
        <mxCell id="DhFWDe7O-0C_lBzoMDP4-42" value="Damage" style="html=1;whiteSpace=wrap;aspect=fixed;shape=isoRectangle;direction=west;rounded=0;fillColor=#F2CC8F;strokeColor=#E07A5F;fontColor=#393C56;fontStyle=1;startSize=23;" vertex="1" parent="DhFWDe7O-0C_lBzoMDP4-24">
          <mxGeometry x="370" y="300" width="66.67" height="40" as="geometry" />
        </mxCell>
        <mxCell id="DhFWDe7O-0C_lBzoMDP4-43" value="End" style="ellipse;whiteSpace=wrap;html=1;aspect=fixed;rounded=0;fillColor=#F2CC8F;strokeColor=#E07A5F;fontColor=#393C56;fontStyle=1;startSize=23;" vertex="1" parent="DhFWDe7O-0C_lBzoMDP4-24">
          <mxGeometry x="490" y="251" width="40" height="40" as="geometry" />
        </mxCell>
        <mxCell id="DhFWDe7O-0C_lBzoMDP4-44" value="Reject" style="html=1;whiteSpace=wrap;aspect=fixed;shape=isoRectangle;direction=west;rounded=0;fillColor=#F2CC8F;strokeColor=#E07A5F;fontColor=#393C56;fontStyle=1;startSize=23;" vertex="1" parent="DhFWDe7O-0C_lBzoMDP4-24">
          <mxGeometry x="371.65999999999997" y="191" width="66.67" height="40" as="geometry" />
        </mxCell>
        <mxCell id="DhFWDe7O-0C_lBzoMDP4-45" value="" style="endArrow=classic;html=1;rounded=0;entryX=0.5;entryY=0;entryDx=0;entryDy=0;strokeColor=#E07A5F;fontColor=#393C56;fontSize=12;fontStyle=1;startSize=23;fillColor=#F2CC8F;" edge="1" parent="DhFWDe7O-0C_lBzoMDP4-24" target="DhFWDe7O-0C_lBzoMDP4-43">
          <mxGeometry relative="1" as="geometry">
            <mxPoint x="440" y="210" as="sourcePoint" />
            <mxPoint x="524.9917500000001" y="251" as="targetPoint" />
            <Array as="points">
              <mxPoint x="510" y="210" />
            </Array>
          </mxGeometry>
        </mxCell>
        <mxCell id="DhFWDe7O-0C_lBzoMDP4-46" value="Yes" style="edgeLabel;resizable=0;html=1;align=center;verticalAlign=middle;rounded=0;fontColor=#393C56;fontSize=12;fillColor=#F2CC8F;strokeColor=#E07A5F;fontStyle=1;startSize=23;" connectable="0" vertex="1" parent="DhFWDe7O-0C_lBzoMDP4-45">
          <mxGeometry relative="1" as="geometry" />
        </mxCell>
        <mxCell id="DhFWDe7O-0C_lBzoMDP4-47" value="" style="endArrow=classic;html=1;rounded=0;entryX=0.5;entryY=1;entryDx=0;entryDy=0;strokeColor=#E07A5F;fontColor=#393C56;fontSize=12;fontStyle=1;startSize=23;fillColor=#F2CC8F;" edge="1" parent="DhFWDe7O-0C_lBzoMDP4-24" target="DhFWDe7O-0C_lBzoMDP4-43">
          <mxGeometry relative="1" as="geometry">
            <mxPoint x="440" y="320" as="sourcePoint" />
            <mxPoint x="530.0017500000001" y="382" as="targetPoint" />
            <Array as="points">
              <mxPoint x="510" y="320" />
            </Array>
          </mxGeometry>
        </mxCell>
        <mxCell id="DhFWDe7O-0C_lBzoMDP4-48" value="No" style="edgeLabel;resizable=0;html=1;align=center;verticalAlign=middle;rounded=0;fontColor=#393C56;fontSize=12;fillColor=#F2CC8F;strokeColor=#E07A5F;fontStyle=1;startSize=23;" connectable="0" vertex="1" parent="DhFWDe7O-0C_lBzoMDP4-47">
          <mxGeometry relative="1" as="geometry" />
        </mxCell>
        <mxCell id="DhFWDe7O-0C_lBzoMDP4-49" value="" style="endArrow=classic;html=1;rounded=0;exitX=0.5;exitY=1;exitDx=0;exitDy=0;entryX=0.515;entryY=0.9;entryDx=0;entryDy=0;entryPerimeter=0;strokeColor=#E07A5F;fontColor=#393C56;fontSize=12;fontStyle=1;startSize=23;fillColor=#F2CC8F;" edge="1" parent="DhFWDe7O-0C_lBzoMDP4-24" source="DhFWDe7O-0C_lBzoMDP4-26" target="DhFWDe7O-0C_lBzoMDP4-44">
          <mxGeometry width="50" height="50" relative="1" as="geometry">
            <mxPoint x="200" y="-20" as="sourcePoint" />
            <mxPoint x="200" y="10" as="targetPoint" />
          </mxGeometry>
        </mxCell>
        <mxCell id="DhFWDe7O-0C_lBzoMDP4-50" value="" style="endArrow=classic;html=1;rounded=0;exitX=0.5;exitY=0.025;exitDx=0;exitDy=0;entryX=0.5;entryY=0;entryDx=0;entryDy=0;exitPerimeter=0;strokeColor=#E07A5F;fontColor=#393C56;fontSize=12;fontStyle=1;startSize=23;fillColor=#F2CC8F;" edge="1" parent="DhFWDe7O-0C_lBzoMDP4-24" source="DhFWDe7O-0C_lBzoMDP4-44" target="DhFWDe7O-0C_lBzoMDP4-38">
          <mxGeometry width="50" height="50" relative="1" as="geometry">
            <mxPoint x="415" y="181" as="sourcePoint" />
            <mxPoint x="413.9949499999998" y="205" as="targetPoint" />
          </mxGeometry>
        </mxCell>
        <mxCell id="DhFWDe7O-0C_lBzoMDP4-51" value="" style="endArrow=classic;html=1;rounded=0;exitX=0.5;exitY=1;exitDx=0;exitDy=0;strokeColor=#E07A5F;fontColor=#393C56;fontSize=12;fontStyle=1;startSize=23;fillColor=#F2CC8F;" edge="1" parent="DhFWDe7O-0C_lBzoMDP4-24" source="DhFWDe7O-0C_lBzoMDP4-38" target="DhFWDe7O-0C_lBzoMDP4-42">
          <mxGeometry width="50" height="50" relative="1" as="geometry">
            <mxPoint x="414.9949999999999" y="240" as="sourcePoint" />
            <mxPoint x="413.3299999999999" y="259" as="targetPoint" />
          </mxGeometry>
        </mxCell>
        <mxCell id="DhFWDe7O-0C_lBzoMDP4-52" value="" style="endArrow=classic;html=1;rounded=0;exitX=0.055;exitY=0.525;exitDx=0;exitDy=0;entryX=0;entryY=0.25;entryDx=0;entryDy=0;exitPerimeter=0;strokeColor=#E07A5F;fontColor=#393C56;fontSize=12;fontStyle=1;startSize=23;fillColor=#F2CC8F;" edge="1" parent="DhFWDe7O-0C_lBzoMDP4-24" source="DhFWDe7O-0C_lBzoMDP4-37" target="DhFWDe7O-0C_lBzoMDP4-26">
          <mxGeometry width="50" height="50" relative="1" as="geometry">
            <mxPoint x="424.9949999999999" y="250" as="sourcePoint" />
            <mxPoint x="423.3299999999999" y="269" as="targetPoint" />
          </mxGeometry>
        </mxCell>
        <mxCell id="DhFWDe7O-0C_lBzoMDP4-53" value="" style="endArrow=classic;html=1;rounded=0;exitX=0.535;exitY=-0.05;exitDx=0;exitDy=0;entryX=0.604;entryY=-0.033;entryDx=0;entryDy=0;exitPerimeter=0;entryPerimeter=0;strokeColor=#E07A5F;fontColor=#393C56;fontSize=12;fontStyle=1;startSize=23;fillColor=#F2CC8F;" edge="1" parent="DhFWDe7O-0C_lBzoMDP4-24" source="DhFWDe7O-0C_lBzoMDP4-37" target="DhFWDe7O-0C_lBzoMDP4-39">
          <mxGeometry width="50" height="50" relative="1" as="geometry">
            <mxPoint x="434.9949999999999" y="260" as="sourcePoint" />
            <mxPoint x="433.3299999999999" y="279" as="targetPoint" />
          </mxGeometry>
        </mxCell>
        <mxCell id="DhFWDe7O-0C_lBzoMDP4-54" value="" style="endArrow=classic;html=1;rounded=0;exitX=1.015;exitY=0.45;exitDx=0;exitDy=0;exitPerimeter=0;entryX=1;entryY=0.5;entryDx=0;entryDy=0;strokeColor=#E07A5F;fontColor=#393C56;fontSize=12;fontStyle=1;startSize=23;fillColor=#F2CC8F;" edge="1" parent="DhFWDe7O-0C_lBzoMDP4-24" source="DhFWDe7O-0C_lBzoMDP4-42" target="DhFWDe7O-0C_lBzoMDP4-39">
          <mxGeometry relative="1" as="geometry">
            <mxPoint x="450" y="330" as="sourcePoint" />
            <mxPoint x="520" y="301" as="targetPoint" />
            <Array as="points">
              <mxPoint x="360" y="295" />
            </Array>
          </mxGeometry>
        </mxCell>
        <mxCell id="DhFWDe7O-0C_lBzoMDP4-55" value="Yes" style="edgeLabel;resizable=0;html=1;align=center;verticalAlign=middle;rounded=0;fontColor=#393C56;fontSize=12;fillColor=#F2CC8F;strokeColor=#E07A5F;fontStyle=1;startSize=23;" connectable="0" vertex="1" parent="DhFWDe7O-0C_lBzoMDP4-54">
          <mxGeometry relative="1" as="geometry">
            <mxPoint x="-7" y="5" as="offset" />
          </mxGeometry>
        </mxCell>
        <mxCell id="DhFWDe7O-0C_lBzoMDP4-56" value="" style="endArrow=classic;html=1;rounded=0;exitX=0.5;exitY=1;exitDx=0;exitDy=0;entryX=0.5;entryY=0;entryDx=0;entryDy=0;strokeColor=#E07A5F;fontColor=#393C56;fontSize=12;fontStyle=1;startSize=23;fillColor=#F2CC8F;" edge="1" parent="DhFWDe7O-0C_lBzoMDP4-24" source="DhFWDe7O-0C_lBzoMDP4-39" target="DhFWDe7O-0C_lBzoMDP4-40">
          <mxGeometry width="50" height="50" relative="1" as="geometry">
            <mxPoint x="100" y="380" as="sourcePoint" />
            <mxPoint x="170" y="380" as="targetPoint" />
          </mxGeometry>
        </mxCell>
        <mxCell id="DhFWDe7O-0C_lBzoMDP4-57" value="" style="endArrow=classic;html=1;rounded=0;exitX=0.5;exitY=1;exitDx=0;exitDy=0;entryX=0.535;entryY=1.025;entryDx=0;entryDy=0;entryPerimeter=0;strokeColor=#E07A5F;fontColor=#393C56;fontSize=12;fontStyle=1;startSize=23;fillColor=#F2CC8F;" edge="1" parent="DhFWDe7O-0C_lBzoMDP4-24" source="DhFWDe7O-0C_lBzoMDP4-40" target="DhFWDe7O-0C_lBzoMDP4-59">
          <mxGeometry width="50" height="50" relative="1" as="geometry">
            <mxPoint x="100" y="380" as="sourcePoint" />
            <mxPoint x="270" y="400" as="targetPoint" />
          </mxGeometry>
        </mxCell>
        <mxCell id="DhFWDe7O-0C_lBzoMDP4-58" value="No" style="edgeStyle=orthogonalEdgeStyle;rounded=0;orthogonalLoop=1;jettySize=auto;html=1;strokeColor=#E07A5F;fontColor=#393C56;fontSize=12;fontStyle=1;startSize=23;fillColor=#F2CC8F;" edge="1" parent="DhFWDe7O-0C_lBzoMDP4-24" source="DhFWDe7O-0C_lBzoMDP4-59" target="DhFWDe7O-0C_lBzoMDP4-41">
          <mxGeometry relative="1" as="geometry" />
        </mxCell>
        <mxCell id="DhFWDe7O-0C_lBzoMDP4-59" value="Rework" style="html=1;whiteSpace=wrap;aspect=fixed;shape=isoRectangle;direction=west;rounded=0;fillColor=#F2CC8F;strokeColor=#E07A5F;fontColor=#393C56;fontStyle=1;startSize=23;" vertex="1" parent="DhFWDe7O-0C_lBzoMDP4-24">
          <mxGeometry x="240" y="400" width="66.67" height="40" as="geometry" />
        </mxCell>
        <mxCell id="DhFWDe7O-0C_lBzoMDP4-60" value="Planner" style="pointerEvents=1;shadow=0;dashed=0;html=1;strokeColor=#E07A5F;fillColor=#F2CC8F;labelPosition=center;verticalLabelPosition=bottom;verticalAlign=middle;outlineConnect=0;align=center;shape=mxgraph.office.users.mail_user;rounded=0;fontColor=#393C56;fontStyle=1;startSize=23;" vertex="1" parent="DhFWDe7O-0C_lBzoMDP4-24">
          <mxGeometry x="358.33000000000004" y="421" width="33.67" height="39" as="geometry" />
        </mxCell>
        <mxCell id="DhFWDe7O-0C_lBzoMDP4-61" value="Yes" style="edgeStyle=orthogonalEdgeStyle;rounded=0;orthogonalLoop=1;jettySize=auto;html=1;strokeColor=#E07A5F;fontColor=#393C56;fontSize=12;fontStyle=1;startSize=23;fillColor=#F2CC8F;" edge="1" parent="DhFWDe7O-0C_lBzoMDP4-24" source="DhFWDe7O-0C_lBzoMDP4-59" target="DhFWDe7O-0C_lBzoMDP4-60">
          <mxGeometry relative="1" as="geometry">
            <mxPoint x="400" y="420" as="targetPoint" />
            <Array as="points">
              <mxPoint x="327" y="420" />
              <mxPoint x="327" y="460" />
            </Array>
          </mxGeometry>
        </mxCell>
        <mxCell id="DhFWDe7O-0C_lBzoMDP4-62" value="รับคืน ตรวจสอบ" style="html=1;whiteSpace=wrap;aspect=fixed;shape=isoRectangle;direction=west;rounded=0;fillColor=#F2CC8F;strokeColor=#E07A5F;fontColor=#393C56;fontStyle=1;startSize=23;" vertex="1" parent="DhFWDe7O-0C_lBzoMDP4-24">
          <mxGeometry x="151.66999999999996" y="510" width="66.67" height="40" as="geometry" />
        </mxCell>
        <mxCell id="DhFWDe7O-0C_lBzoMDP4-63" value="" style="edgeStyle=orthogonalEdgeStyle;rounded=0;orthogonalLoop=1;jettySize=auto;html=1;strokeColor=#E07A5F;fontColor=#393C56;fontSize=12;fontStyle=1;startSize=23;fillColor=#F2CC8F;" edge="1" parent="DhFWDe7O-0C_lBzoMDP4-24" source="DhFWDe7O-0C_lBzoMDP4-41" target="DhFWDe7O-0C_lBzoMDP4-62">
          <mxGeometry relative="1" as="geometry" />
        </mxCell>
        <mxCell id="DhFWDe7O-0C_lBzoMDP4-64" value="PD WIP" style="shape=parallelogram;perimeter=parallelogramPerimeter;whiteSpace=wrap;html=1;fixedSize=1;rounded=0;fillColor=#F2CC8F;strokeColor=#E07A5F;fontColor=#393C56;fontStyle=1;startSize=23;" vertex="1" parent="DhFWDe7O-0C_lBzoMDP4-24">
          <mxGeometry x="10" y="515" width="90" height="30" as="geometry" />
        </mxCell>
        <mxCell id="DhFWDe7O-0C_lBzoMDP4-65" value="Yes" style="edgeStyle=orthogonalEdgeStyle;rounded=0;orthogonalLoop=1;jettySize=auto;html=1;strokeColor=#E07A5F;fontColor=#393C56;fontSize=12;fontStyle=1;startSize=23;fillColor=#F2CC8F;" edge="1" parent="DhFWDe7O-0C_lBzoMDP4-24" source="DhFWDe7O-0C_lBzoMDP4-62" target="DhFWDe7O-0C_lBzoMDP4-64">
          <mxGeometry relative="1" as="geometry" />
        </mxCell>
        <mxCell id="DhFWDe7O-0C_lBzoMDP4-66" value="Account" style="shape=parallelogram;perimeter=parallelogramPerimeter;whiteSpace=wrap;html=1;fixedSize=1;rounded=0;fillColor=#F2CC8F;strokeColor=#E07A5F;fontColor=#393C56;fontStyle=1;startSize=23;" vertex="1" parent="DhFWDe7O-0C_lBzoMDP4-24">
          <mxGeometry x="140.01" y="585" width="90" height="30" as="geometry" />
        </mxCell>
        <mxCell id="DhFWDe7O-0C_lBzoMDP4-67" value="No" style="edgeStyle=orthogonalEdgeStyle;rounded=0;orthogonalLoop=1;jettySize=auto;html=1;strokeColor=#E07A5F;fontColor=#393C56;fontSize=12;fontStyle=1;startSize=23;fillColor=#F2CC8F;" edge="1" parent="DhFWDe7O-0C_lBzoMDP4-24" source="DhFWDe7O-0C_lBzoMDP4-62" target="DhFWDe7O-0C_lBzoMDP4-66">
          <mxGeometry relative="1" as="geometry" />
        </mxCell>
        <mxCell id="DhFWDe7O-0C_lBzoMDP4-68" value="CS" style="shape=parallelogram;perimeter=parallelogramPerimeter;whiteSpace=wrap;html=1;fixedSize=1;rounded=0;fillColor=#F2CC8F;strokeColor=#E07A5F;fontColor=#393C56;fontStyle=1;startSize=23;" vertex="1" parent="DhFWDe7O-0C_lBzoMDP4-24">
          <mxGeometry x="250" y="585" width="90" height="30" as="geometry" />
        </mxCell>
        <mxCell id="DhFWDe7O-0C_lBzoMDP4-69" value="" style="edgeStyle=orthogonalEdgeStyle;rounded=0;orthogonalLoop=1;jettySize=auto;html=1;strokeColor=#E07A5F;fontColor=#393C56;fontSize=12;fontStyle=1;startSize=23;fillColor=#F2CC8F;" edge="1" parent="DhFWDe7O-0C_lBzoMDP4-24" source="DhFWDe7O-0C_lBzoMDP4-66" target="DhFWDe7O-0C_lBzoMDP4-68">
          <mxGeometry relative="1" as="geometry" />
        </mxCell>
        <mxCell id="DhFWDe7O-0C_lBzoMDP4-70" value="Logistic" style="shape=parallelogram;perimeter=parallelogramPerimeter;whiteSpace=wrap;html=1;fixedSize=1;rounded=0;fillColor=#F2CC8F;strokeColor=#E07A5F;fontColor=#393C56;fontStyle=1;startSize=23;" vertex="1" parent="DhFWDe7O-0C_lBzoMDP4-24">
          <mxGeometry x="358.33000000000004" y="585" width="90" height="30" as="geometry" />
        </mxCell>
        <mxCell id="DhFWDe7O-0C_lBzoMDP4-71" value="" style="edgeStyle=orthogonalEdgeStyle;rounded=0;orthogonalLoop=1;jettySize=auto;html=1;strokeColor=#E07A5F;fontColor=#393C56;fontSize=12;fontStyle=1;startSize=23;fillColor=#F2CC8F;" edge="1" parent="DhFWDe7O-0C_lBzoMDP4-24" source="DhFWDe7O-0C_lBzoMDP4-68" target="DhFWDe7O-0C_lBzoMDP4-70">
          <mxGeometry relative="1" as="geometry" />
        </mxCell>
        <mxCell id="DhFWDe7O-0C_lBzoMDP4-72" value="End" style="ellipse;whiteSpace=wrap;html=1;aspect=fixed;rounded=0;fillColor=#F2CC8F;strokeColor=#E07A5F;fontColor=#393C56;fontStyle=1;startSize=23;" vertex="1" parent="DhFWDe7O-0C_lBzoMDP4-24">
          <mxGeometry x="470" y="580" width="40" height="40" as="geometry" />
        </mxCell>
        <mxCell id="DhFWDe7O-0C_lBzoMDP4-73" value="" style="edgeStyle=orthogonalEdgeStyle;rounded=0;orthogonalLoop=1;jettySize=auto;html=1;strokeColor=#E07A5F;fontColor=#393C56;fontSize=12;fontStyle=1;startSize=23;fillColor=#F2CC8F;" edge="1" parent="DhFWDe7O-0C_lBzoMDP4-24" source="DhFWDe7O-0C_lBzoMDP4-70" target="DhFWDe7O-0C_lBzoMDP4-72">
          <mxGeometry relative="1" as="geometry" />
        </mxCell>
        <mxCell id="DhFWDe7O-0C_lBzoMDP4-74" value="" style="edgeStyle=elbowEdgeStyle;elbow=horizontal;endArrow=classic;html=1;rounded=0;exitX=0.5;exitY=1;exitDx=0;exitDy=0;entryX=0;entryY=0.5;entryDx=0;entryDy=0;strokeColor=#E07A5F;fontColor=#393C56;fontSize=12;fontStyle=1;startSize=23;fillColor=#F2CC8F;" edge="1" parent="DhFWDe7O-0C_lBzoMDP4-24" source="DhFWDe7O-0C_lBzoMDP4-64" target="DhFWDe7O-0C_lBzoMDP4-66">
          <mxGeometry width="50" height="50" relative="1" as="geometry">
            <mxPoint x="100" y="520" as="sourcePoint" />
            <mxPoint x="180" y="440" as="targetPoint" />
            <Array as="points">
              <mxPoint x="55" y="570" />
            </Array>
          </mxGeometry>
        </mxCell>
        <mxCell id="DhFWDe7O-0C_lBzoMDP4-75" value="Split" style="strokeWidth=2;html=1;shape=mxgraph.flowchart.multi-document;whiteSpace=wrap;rounded=0;fillColor=#F2CC8F;strokeColor=#E07A5F;fontColor=#393C56;fontStyle=1;startSize=23;" vertex="1" parent="DhFWDe7O-0C_lBzoMDP4-24">
          <mxGeometry x="470.00000000000006" y="-10" width="70" height="40" as="geometry" />
        </mxCell>
        <mxCell id="UdGK_8OoOkop-T-GkZJp-1" value="ฟอร์ม ใบรับคืนของลูกค้า" style="shape=document;whiteSpace=wrap;html=1;boundedLbl=1;rounded=0;fillColor=#fff2cc;strokeColor=#d6b656;fontStyle=1;startSize=23;" vertex="1" parent="DhFWDe7O-0C_lBzoMDP4-24">
          <mxGeometry x="306.6700000000001" y="81" width="80" height="50" as="geometry" />
        </mxCell>
        <mxCell id="DhFWDe7O-0C_lBzoMDP4-76" value="" style="endArrow=classic;html=1;rounded=0;entryX=0.5;entryY=0.9;entryDx=0;entryDy=0;entryPerimeter=0;strokeColor=#E07A5F;fontColor=#393C56;fontSize=12;fontStyle=1;startSize=23;fillColor=#F2CC8F;" edge="1" parent="1" target="DhFWDe7O-0C_lBzoMDP4-25">
          <mxGeometry width="50" height="50" relative="1" as="geometry">
            <mxPoint x="743" y="210" as="sourcePoint" />
            <mxPoint x="940" y="180" as="targetPoint" />
          </mxGeometry>
        </mxCell>
        <mxCell id="DhFWDe7O-0C_lBzoMDP4-79" value="Has &lt;br&gt;Return" style="html=1;whiteSpace=wrap;aspect=fixed;shape=isoRectangle;rounded=0;fillColor=#FAD9D5;strokeColor=#D0CEE2;fontColor=#1A1A1A;" vertex="1" parent="1">
          <mxGeometry x="270" y="40" width="66.67" height="40" as="geometry" />
        </mxCell>
        <mxCell id="DhFWDe7O-0C_lBzoMDP4-80" value="Yes" style="edgeStyle=elbowEdgeStyle;elbow=horizontal;endArrow=classic;html=1;rounded=0;exitX=0.45;exitY=1;exitDx=0;exitDy=0;entryX=0;entryY=0.5;entryDx=0;entryDy=0;exitPerimeter=0;strokeColor=#09555B;fontColor=#1A1A1A;" edge="1" parent="1" source="DhFWDe7O-0C_lBzoMDP4-79" target="DhFWDe7O-0C_lBzoMDP4-5">
          <mxGeometry width="50" height="50" relative="1" as="geometry">
            <mxPoint x="580" y="310" as="sourcePoint" />
            <mxPoint x="660" y="230" as="targetPoint" />
            <Array as="points">
              <mxPoint x="300" y="100" />
            </Array>
          </mxGeometry>
        </mxCell>
        <mxCell id="DhFWDe7O-0C_lBzoMDP4-6" value="Logistic" style="rounded=0;whiteSpace=wrap;html=1;fillColor=#FAD9D5;strokeColor=#D0CEE2;fontColor=#1A1A1A;" vertex="1" parent="1">
          <mxGeometry x="530" y="100" width="80" height="40" as="geometry" />
        </mxCell>
        <mxCell id="DhFWDe7O-0C_lBzoMDP4-84" value="" style="edgeStyle=elbowEdgeStyle;elbow=horizontal;endArrow=classic;html=1;rounded=0;exitX=1;exitY=0.5;exitDx=0;exitDy=0;entryX=0.5;entryY=1;entryDx=0;entryDy=0;strokeColor=#09555B;fontColor=#1A1A1A;" edge="1" parent="1" source="DhFWDe7O-0C_lBzoMDP4-6" target="DhFWDe7O-0C_lBzoMDP4-7">
          <mxGeometry width="50" height="50" relative="1" as="geometry">
            <mxPoint x="580" y="310" as="sourcePoint" />
            <mxPoint x="660" y="230" as="targetPoint" />
            <Array as="points">
              <mxPoint x="680" y="100" />
            </Array>
          </mxGeometry>
        </mxCell>
        <mxCell id="UdGK_8OoOkop-T-GkZJp-2" value="ฟอร์มPreใบรับคืนของลูกค้า" style="shape=document;whiteSpace=wrap;html=1;boundedLbl=1;rounded=0;fillColor=#fff2cc;strokeColor=#d6b656;" vertex="1" parent="1">
          <mxGeometry x="590" y="80" width="80" height="50" as="geometry" />
        </mxCell>
        <mxCell id="GTsnGSvOFYT3wbNIVOu_-3" value="Decision" style="html=1;whiteSpace=wrap;aspect=fixed;shape=isoRectangle;rounded=0;fillColor=#FAD9D5;strokeColor=#D0CEE2;fontColor=#1A1A1A;" vertex="1" parent="1">
          <mxGeometry x="438.33" y="100" width="66.67" height="40" as="geometry" />
        </mxCell>
        <mxCell id="GTsnGSvOFYT3wbNIVOu_-4" value="End" style="ellipse;whiteSpace=wrap;html=1;aspect=fixed;rounded=0;fillColor=#FAD9D5;strokeColor=#D0CEE2;fontColor=#1A1A1A;" vertex="1" parent="1">
          <mxGeometry x="451.6599999999999" y="180" width="40" height="40" as="geometry" />
        </mxCell>
        <mxCell id="GTsnGSvOFYT3wbNIVOu_-5" value="RE" style="endArrow=classic;html=1;rounded=0;exitX=0.48;exitY=1.05;exitDx=0;exitDy=0;exitPerimeter=0;strokeColor=#09555B;fontColor=#1A1A1A;" edge="1" parent="1" source="GTsnGSvOFYT3wbNIVOu_-3" target="GTsnGSvOFYT3wbNIVOu_-4">
          <mxGeometry relative="1" as="geometry">
            <mxPoint x="538.33" y="100" as="sourcePoint" />
            <mxPoint x="398.33" y="220" as="targetPoint" />
          </mxGeometry>
        </mxCell>
        <mxCell id="GTsnGSvOFYT3wbNIVOu_-6" value="Reject" style="edgeLabel;resizable=0;html=1;align=center;verticalAlign=middle;rounded=0;fontColor=#1A1A1A;" connectable="0" vertex="1" parent="GTsnGSvOFYT3wbNIVOu_-5">
          <mxGeometry relative="1" as="geometry" />
        </mxCell>
        <mxCell id="GTsnGSvOFYT3wbNIVOu_-9" value="Yes" style="endArrow=classic;html=1;rounded=0;strokeColor=#09555B;fontColor=#1A1A1A;exitX=0.955;exitY=0.5;exitDx=0;exitDy=0;exitPerimeter=0;entryX=0;entryY=0.5;entryDx=0;entryDy=0;" edge="1" parent="1" source="GTsnGSvOFYT3wbNIVOu_-3" target="DhFWDe7O-0C_lBzoMDP4-6">
          <mxGeometry width="50" height="50" relative="1" as="geometry">
            <mxPoint x="530" y="280" as="sourcePoint" />
            <mxPoint x="600" y="280" as="targetPoint" />
          </mxGeometry>
        </mxCell>
        <mxCell id="C-YRyCGsgUnsSnCfBO8c-1" value="End" style="ellipse;whiteSpace=wrap;html=1;aspect=fixed;rounded=0;fillColor=#FAD9D5;strokeColor=#D0CEE2;fontColor=#1A1A1A;" vertex="1" parent="1">
          <mxGeometry x="451.65999999999997" y="470" width="40" height="40" as="geometry" />
        </mxCell>
      </root>
    </mxGraphModel>
  </diagram>
</mxfile>
